<mxfile host="app.diagrams.net" modified="2021-09-14T02:14:38.783Z" agent="5.0 (Windows NT 10.0; Win64; x64) AppleWebKit/537.36 (KHTML, like Gecko) Chrome/93.0.4577.63 Safari/537.36" etag="BSPydD03ovspT6yVaw8j" version="15.1.1" type="github">
  <diagram id="qcZ0bdx1zwvSYRIen7Kd" name="负载均衡架构演变">
    <mxGraphModel dx="2249" dy="762" grid="1" gridSize="10" guides="1" tooltips="1" connect="1" arrows="1" fold="1" page="1" pageScale="1" pageWidth="827" pageHeight="1169" math="0" shadow="0">
      <root>
        <mxCell id="0" />
        <mxCell id="1" parent="0" />
        <mxCell id="mUGOG3NJcuzfk7SKJ7IW-238" style="edgeStyle=orthogonalEdgeStyle;rounded=0;orthogonalLoop=1;jettySize=auto;html=1;exitX=0.25;exitY=1;exitDx=0;exitDy=0;entryX=0.75;entryY=0;entryDx=0;entryDy=0;" parent="1" source="mUGOG3NJcuzfk7SKJ7IW-237" target="mUGOG3NJcuzfk7SKJ7IW-193" edge="1">
          <mxGeometry relative="1" as="geometry" />
        </mxCell>
        <mxCell id="mUGOG3NJcuzfk7SKJ7IW-237" value="" style="rounded=1;whiteSpace=wrap;html=1;" parent="1" vertex="1">
          <mxGeometry x="-744" y="3020" width="190" height="160" as="geometry" />
        </mxCell>
        <mxCell id="mUGOG3NJcuzfk7SKJ7IW-109" style="edgeStyle=orthogonalEdgeStyle;rounded=0;orthogonalLoop=1;jettySize=auto;html=1;exitX=1;exitY=0.5;exitDx=0;exitDy=0;entryX=0;entryY=0.5;entryDx=0;entryDy=0;" parent="1" source="mUGOG3NJcuzfk7SKJ7IW-108" target="mUGOG3NJcuzfk7SKJ7IW-99" edge="1">
          <mxGeometry relative="1" as="geometry">
            <Array as="points">
              <mxPoint x="-266" y="1890" />
              <mxPoint x="-266" y="2050" />
            </Array>
          </mxGeometry>
        </mxCell>
        <mxCell id="mUGOG3NJcuzfk7SKJ7IW-111" value="直接访问（绕开网关）" style="edgeLabel;html=1;align=center;verticalAlign=middle;resizable=0;points=[];" parent="mUGOG3NJcuzfk7SKJ7IW-109" vertex="1" connectable="0">
          <mxGeometry x="-0.3439" y="-1" relative="1" as="geometry">
            <mxPoint x="51" y="14" as="offset" />
          </mxGeometry>
        </mxCell>
        <mxCell id="mUGOG3NJcuzfk7SKJ7IW-108" value="" style="whiteSpace=wrap;html=1;aspect=fixed;" parent="1" vertex="1">
          <mxGeometry x="-541" y="1770" width="240" height="240" as="geometry" />
        </mxCell>
        <mxCell id="mUGOG3NJcuzfk7SKJ7IW-6" style="edgeStyle=orthogonalEdgeStyle;rounded=0;orthogonalLoop=1;jettySize=auto;html=1;exitX=1;exitY=0.5;exitDx=0;exitDy=0;entryX=0;entryY=0.5;entryDx=0;entryDy=0;" parent="1" source="mUGOG3NJcuzfk7SKJ7IW-2" target="mUGOG3NJcuzfk7SKJ7IW-3" edge="1">
          <mxGeometry relative="1" as="geometry" />
        </mxCell>
        <mxCell id="mUGOG3NJcuzfk7SKJ7IW-2" value="" style="aspect=fixed;perimeter=ellipsePerimeter;html=1;align=center;shadow=0;dashed=0;fontColor=#4277BB;labelBackgroundColor=#ffffff;fontSize=12;spacingTop=3;image;image=img/lib/ibm/users/browser.svg;" parent="1" vertex="1">
          <mxGeometry x="-383" y="60" width="60" height="60" as="geometry" />
        </mxCell>
        <mxCell id="mUGOG3NJcuzfk7SKJ7IW-3" value="tomcat" style="rounded=1;whiteSpace=wrap;html=1;" parent="1" vertex="1">
          <mxGeometry x="-149" y="60" width="120" height="60" as="geometry" />
        </mxCell>
        <mxCell id="mUGOG3NJcuzfk7SKJ7IW-7" style="edgeStyle=orthogonalEdgeStyle;rounded=0;orthogonalLoop=1;jettySize=auto;html=1;exitX=1;exitY=0.5;exitDx=0;exitDy=0;entryX=0;entryY=0.5;entryDx=0;entryDy=0;" parent="1" source="mUGOG3NJcuzfk7SKJ7IW-8" target="mUGOG3NJcuzfk7SKJ7IW-9" edge="1">
          <mxGeometry relative="1" as="geometry" />
        </mxCell>
        <mxCell id="mUGOG3NJcuzfk7SKJ7IW-13" style="edgeStyle=orthogonalEdgeStyle;rounded=0;orthogonalLoop=1;jettySize=auto;html=1;exitX=1;exitY=0.5;exitDx=0;exitDy=0;entryX=0;entryY=0.5;entryDx=0;entryDy=0;" parent="1" source="mUGOG3NJcuzfk7SKJ7IW-8" target="mUGOG3NJcuzfk7SKJ7IW-11" edge="1">
          <mxGeometry relative="1" as="geometry" />
        </mxCell>
        <mxCell id="mUGOG3NJcuzfk7SKJ7IW-14" style="edgeStyle=orthogonalEdgeStyle;rounded=0;orthogonalLoop=1;jettySize=auto;html=1;exitX=1;exitY=0.5;exitDx=0;exitDy=0;entryX=0;entryY=0.5;entryDx=0;entryDy=0;" parent="1" source="mUGOG3NJcuzfk7SKJ7IW-8" target="mUGOG3NJcuzfk7SKJ7IW-10" edge="1">
          <mxGeometry relative="1" as="geometry" />
        </mxCell>
        <mxCell id="mUGOG3NJcuzfk7SKJ7IW-8" value="" style="aspect=fixed;perimeter=ellipsePerimeter;html=1;align=center;shadow=0;dashed=0;fontColor=#4277BB;labelBackgroundColor=#ffffff;fontSize=12;spacingTop=3;image;image=img/lib/ibm/users/browser.svg;" parent="1" vertex="1">
          <mxGeometry x="-383" y="270" width="60" height="60" as="geometry" />
        </mxCell>
        <mxCell id="mUGOG3NJcuzfk7SKJ7IW-9" value="tomcat2" style="rounded=1;whiteSpace=wrap;html=1;" parent="1" vertex="1">
          <mxGeometry x="-149" y="270" width="120" height="60" as="geometry" />
        </mxCell>
        <mxCell id="mUGOG3NJcuzfk7SKJ7IW-10" value="tomcat3" style="rounded=1;whiteSpace=wrap;html=1;" parent="1" vertex="1">
          <mxGeometry x="-149" y="370" width="120" height="60" as="geometry" />
        </mxCell>
        <mxCell id="mUGOG3NJcuzfk7SKJ7IW-11" value="tomcat1" style="rounded=1;whiteSpace=wrap;html=1;" parent="1" vertex="1">
          <mxGeometry x="-149" y="180" width="120" height="60" as="geometry" />
        </mxCell>
        <mxCell id="mUGOG3NJcuzfk7SKJ7IW-27" style="edgeStyle=orthogonalEdgeStyle;rounded=0;orthogonalLoop=1;jettySize=auto;html=1;exitX=1;exitY=0.5;exitDx=0;exitDy=0;entryX=0;entryY=0.5;entryDx=0;entryDy=0;" parent="1" source="mUGOG3NJcuzfk7SKJ7IW-18" target="mUGOG3NJcuzfk7SKJ7IW-26" edge="1">
          <mxGeometry relative="1" as="geometry" />
        </mxCell>
        <mxCell id="mUGOG3NJcuzfk7SKJ7IW-18" value="" style="aspect=fixed;perimeter=ellipsePerimeter;html=1;align=center;shadow=0;dashed=0;fontColor=#4277BB;labelBackgroundColor=#ffffff;fontSize=12;spacingTop=3;image;image=img/lib/ibm/users/browser.svg;" parent="1" vertex="1">
          <mxGeometry x="-503" y="567" width="60" height="60" as="geometry" />
        </mxCell>
        <mxCell id="mUGOG3NJcuzfk7SKJ7IW-19" value="tomcat2" style="rounded=1;whiteSpace=wrap;html=1;" parent="1" vertex="1">
          <mxGeometry x="-149" y="567" width="120" height="60" as="geometry" />
        </mxCell>
        <mxCell id="mUGOG3NJcuzfk7SKJ7IW-20" value="tomcat3" style="rounded=1;whiteSpace=wrap;html=1;" parent="1" vertex="1">
          <mxGeometry x="-149" y="667" width="120" height="60" as="geometry" />
        </mxCell>
        <mxCell id="mUGOG3NJcuzfk7SKJ7IW-21" value="tomcat1" style="rounded=1;whiteSpace=wrap;html=1;" parent="1" vertex="1">
          <mxGeometry x="-149" y="477" width="120" height="60" as="geometry" />
        </mxCell>
        <mxCell id="mUGOG3NJcuzfk7SKJ7IW-28" style="edgeStyle=orthogonalEdgeStyle;rounded=0;orthogonalLoop=1;jettySize=auto;html=1;exitX=1;exitY=0.5;exitDx=0;exitDy=0;entryX=0;entryY=0.5;entryDx=0;entryDy=0;" parent="1" source="mUGOG3NJcuzfk7SKJ7IW-26" target="mUGOG3NJcuzfk7SKJ7IW-19" edge="1">
          <mxGeometry relative="1" as="geometry" />
        </mxCell>
        <mxCell id="mUGOG3NJcuzfk7SKJ7IW-29" style="edgeStyle=orthogonalEdgeStyle;rounded=0;orthogonalLoop=1;jettySize=auto;html=1;exitX=1;exitY=0.5;exitDx=0;exitDy=0;entryX=0;entryY=0.5;entryDx=0;entryDy=0;" parent="1" source="mUGOG3NJcuzfk7SKJ7IW-26" target="mUGOG3NJcuzfk7SKJ7IW-21" edge="1">
          <mxGeometry relative="1" as="geometry" />
        </mxCell>
        <mxCell id="mUGOG3NJcuzfk7SKJ7IW-30" style="edgeStyle=orthogonalEdgeStyle;rounded=0;orthogonalLoop=1;jettySize=auto;html=1;exitX=1;exitY=0.5;exitDx=0;exitDy=0;entryX=0;entryY=0.5;entryDx=0;entryDy=0;" parent="1" source="mUGOG3NJcuzfk7SKJ7IW-26" target="mUGOG3NJcuzfk7SKJ7IW-20" edge="1">
          <mxGeometry relative="1" as="geometry" />
        </mxCell>
        <mxCell id="mUGOG3NJcuzfk7SKJ7IW-26" value="Nginx" style="rounded=0;whiteSpace=wrap;html=1;" parent="1" vertex="1">
          <mxGeometry x="-353" y="567" width="120" height="60" as="geometry" />
        </mxCell>
        <mxCell id="mUGOG3NJcuzfk7SKJ7IW-31" value="&lt;font style=&quot;font-size: 24px&quot;&gt;LB&lt;/font&gt;" style="text;html=1;align=center;verticalAlign=middle;resizable=0;points=[];autosize=1;strokeColor=none;fillColor=none;" parent="1" vertex="1">
          <mxGeometry x="-318" y="530" width="50" height="20" as="geometry" />
        </mxCell>
        <mxCell id="mUGOG3NJcuzfk7SKJ7IW-53" style="edgeStyle=orthogonalEdgeStyle;rounded=0;orthogonalLoop=1;jettySize=auto;html=1;exitX=1;exitY=0.5;exitDx=0;exitDy=0;entryX=0;entryY=0.5;entryDx=0;entryDy=0;" parent="1" source="mUGOG3NJcuzfk7SKJ7IW-39" target="mUGOG3NJcuzfk7SKJ7IW-48" edge="1">
          <mxGeometry relative="1" as="geometry" />
        </mxCell>
        <mxCell id="mUGOG3NJcuzfk7SKJ7IW-39" value="" style="aspect=fixed;perimeter=ellipsePerimeter;html=1;align=center;shadow=0;dashed=0;fontColor=#4277BB;labelBackgroundColor=#ffffff;fontSize=12;spacingTop=3;image;image=img/lib/ibm/users/browser.svg;" parent="1" vertex="1">
          <mxGeometry x="-563" y="880" width="60" height="60" as="geometry" />
        </mxCell>
        <mxCell id="mUGOG3NJcuzfk7SKJ7IW-40" value="tomcat2" style="rounded=1;whiteSpace=wrap;html=1;" parent="1" vertex="1">
          <mxGeometry x="-57" y="880" width="120" height="60" as="geometry" />
        </mxCell>
        <mxCell id="mUGOG3NJcuzfk7SKJ7IW-41" value="tomcat3" style="rounded=1;whiteSpace=wrap;html=1;" parent="1" vertex="1">
          <mxGeometry x="-57" y="980" width="120" height="60" as="geometry" />
        </mxCell>
        <mxCell id="mUGOG3NJcuzfk7SKJ7IW-42" value="tomcat1" style="rounded=1;whiteSpace=wrap;html=1;" parent="1" vertex="1">
          <mxGeometry x="-57" y="790" width="120" height="60" as="geometry" />
        </mxCell>
        <mxCell id="mUGOG3NJcuzfk7SKJ7IW-43" style="edgeStyle=orthogonalEdgeStyle;rounded=0;orthogonalLoop=1;jettySize=auto;html=1;exitX=1;exitY=0.5;exitDx=0;exitDy=0;entryX=0;entryY=0.5;entryDx=0;entryDy=0;" parent="1" source="mUGOG3NJcuzfk7SKJ7IW-51" target="mUGOG3NJcuzfk7SKJ7IW-40" edge="1">
          <mxGeometry relative="1" as="geometry">
            <mxPoint x="-141" y="910" as="sourcePoint" />
          </mxGeometry>
        </mxCell>
        <mxCell id="mUGOG3NJcuzfk7SKJ7IW-44" style="edgeStyle=orthogonalEdgeStyle;rounded=0;orthogonalLoop=1;jettySize=auto;html=1;exitX=1;exitY=0.5;exitDx=0;exitDy=0;entryX=0;entryY=0.5;entryDx=0;entryDy=0;" parent="1" source="mUGOG3NJcuzfk7SKJ7IW-51" target="mUGOG3NJcuzfk7SKJ7IW-42" edge="1">
          <mxGeometry relative="1" as="geometry">
            <mxPoint x="-141" y="910" as="sourcePoint" />
          </mxGeometry>
        </mxCell>
        <mxCell id="mUGOG3NJcuzfk7SKJ7IW-45" style="edgeStyle=orthogonalEdgeStyle;rounded=0;orthogonalLoop=1;jettySize=auto;html=1;exitX=1;exitY=0.5;exitDx=0;exitDy=0;entryX=0;entryY=0.5;entryDx=0;entryDy=0;" parent="1" source="mUGOG3NJcuzfk7SKJ7IW-51" target="mUGOG3NJcuzfk7SKJ7IW-41" edge="1">
          <mxGeometry relative="1" as="geometry">
            <mxPoint x="-141" y="910" as="sourcePoint" />
          </mxGeometry>
        </mxCell>
        <mxCell id="mUGOG3NJcuzfk7SKJ7IW-52" style="edgeStyle=orthogonalEdgeStyle;rounded=0;orthogonalLoop=1;jettySize=auto;html=1;exitX=1;exitY=0.5;exitDx=0;exitDy=0;entryX=0;entryY=0.5;entryDx=0;entryDy=0;" parent="1" source="mUGOG3NJcuzfk7SKJ7IW-48" target="mUGOG3NJcuzfk7SKJ7IW-51" edge="1">
          <mxGeometry relative="1" as="geometry" />
        </mxCell>
        <mxCell id="mUGOG3NJcuzfk7SKJ7IW-48" value="Nginx" style="rounded=0;whiteSpace=wrap;html=1;" parent="1" vertex="1">
          <mxGeometry x="-433" y="880" width="120" height="60" as="geometry" />
        </mxCell>
        <mxCell id="mUGOG3NJcuzfk7SKJ7IW-49" value="&lt;font style=&quot;font-size: 24px&quot;&gt;LB&lt;/font&gt;" style="text;html=1;align=center;verticalAlign=middle;resizable=0;points=[];autosize=1;strokeColor=none;fillColor=none;" parent="1" vertex="1">
          <mxGeometry x="-398" y="843" width="50" height="20" as="geometry" />
        </mxCell>
        <mxCell id="mUGOG3NJcuzfk7SKJ7IW-51" value="Gateway集群" style="shape=process;whiteSpace=wrap;html=1;backgroundOutline=1;" parent="1" vertex="1">
          <mxGeometry x="-263" y="880" width="120" height="60" as="geometry" />
        </mxCell>
        <mxCell id="mUGOG3NJcuzfk7SKJ7IW-57" style="edgeStyle=orthogonalEdgeStyle;rounded=0;orthogonalLoop=1;jettySize=auto;html=1;exitX=1;exitY=0.5;exitDx=0;exitDy=0;entryX=0;entryY=0.5;entryDx=0;entryDy=0;" parent="1" source="mUGOG3NJcuzfk7SKJ7IW-58" target="mUGOG3NJcuzfk7SKJ7IW-66" edge="1">
          <mxGeometry relative="1" as="geometry" />
        </mxCell>
        <mxCell id="mUGOG3NJcuzfk7SKJ7IW-58" value="" style="aspect=fixed;perimeter=ellipsePerimeter;html=1;align=center;shadow=0;dashed=0;fontColor=#4277BB;labelBackgroundColor=#ffffff;fontSize=12;spacingTop=3;image;image=img/lib/ibm/users/browser.svg;" parent="1" vertex="1">
          <mxGeometry x="-598" y="1270" width="60" height="60" as="geometry" />
        </mxCell>
        <mxCell id="mUGOG3NJcuzfk7SKJ7IW-59" value="tomcat2" style="rounded=1;whiteSpace=wrap;html=1;" parent="1" vertex="1">
          <mxGeometry x="-46" y="1270" width="120" height="60" as="geometry" />
        </mxCell>
        <mxCell id="mUGOG3NJcuzfk7SKJ7IW-60" value="tomcat3" style="rounded=1;whiteSpace=wrap;html=1;" parent="1" vertex="1">
          <mxGeometry x="-46" y="1370" width="120" height="60" as="geometry" />
        </mxCell>
        <mxCell id="mUGOG3NJcuzfk7SKJ7IW-61" value="tomcat1" style="rounded=1;whiteSpace=wrap;html=1;" parent="1" vertex="1">
          <mxGeometry x="-46" y="1180" width="120" height="60" as="geometry" />
        </mxCell>
        <mxCell id="mUGOG3NJcuzfk7SKJ7IW-62" style="edgeStyle=orthogonalEdgeStyle;rounded=0;orthogonalLoop=1;jettySize=auto;html=1;exitX=1;exitY=0.5;exitDx=0;exitDy=0;entryX=0;entryY=0.5;entryDx=0;entryDy=0;" parent="1" source="mUGOG3NJcuzfk7SKJ7IW-68" target="mUGOG3NJcuzfk7SKJ7IW-59" edge="1">
          <mxGeometry relative="1" as="geometry">
            <mxPoint x="-130" y="1300" as="sourcePoint" />
          </mxGeometry>
        </mxCell>
        <mxCell id="mUGOG3NJcuzfk7SKJ7IW-63" style="edgeStyle=orthogonalEdgeStyle;rounded=0;orthogonalLoop=1;jettySize=auto;html=1;exitX=1;exitY=0.5;exitDx=0;exitDy=0;entryX=0;entryY=0.5;entryDx=0;entryDy=0;" parent="1" source="mUGOG3NJcuzfk7SKJ7IW-68" target="mUGOG3NJcuzfk7SKJ7IW-61" edge="1">
          <mxGeometry relative="1" as="geometry">
            <mxPoint x="-130" y="1300" as="sourcePoint" />
          </mxGeometry>
        </mxCell>
        <mxCell id="mUGOG3NJcuzfk7SKJ7IW-64" style="edgeStyle=orthogonalEdgeStyle;rounded=0;orthogonalLoop=1;jettySize=auto;html=1;exitX=1;exitY=0.5;exitDx=0;exitDy=0;entryX=0;entryY=0.5;entryDx=0;entryDy=0;" parent="1" source="mUGOG3NJcuzfk7SKJ7IW-68" target="mUGOG3NJcuzfk7SKJ7IW-60" edge="1">
          <mxGeometry relative="1" as="geometry">
            <mxPoint x="-130" y="1300" as="sourcePoint" />
          </mxGeometry>
        </mxCell>
        <mxCell id="mUGOG3NJcuzfk7SKJ7IW-69" style="edgeStyle=orthogonalEdgeStyle;rounded=0;orthogonalLoop=1;jettySize=auto;html=1;exitX=1;exitY=0.5;exitDx=0;exitDy=0;entryX=0;entryY=0.5;entryDx=0;entryDy=0;" parent="1" source="mUGOG3NJcuzfk7SKJ7IW-66" target="mUGOG3NJcuzfk7SKJ7IW-68" edge="1">
          <mxGeometry relative="1" as="geometry" />
        </mxCell>
        <mxCell id="mUGOG3NJcuzfk7SKJ7IW-70" value="动态请求" style="edgeLabel;html=1;align=center;verticalAlign=middle;resizable=0;points=[];" parent="mUGOG3NJcuzfk7SKJ7IW-69" vertex="1" connectable="0">
          <mxGeometry x="-0.201" y="3" relative="1" as="geometry">
            <mxPoint x="12" y="7" as="offset" />
          </mxGeometry>
        </mxCell>
        <mxCell id="mUGOG3NJcuzfk7SKJ7IW-75" style="edgeStyle=orthogonalEdgeStyle;rounded=0;orthogonalLoop=1;jettySize=auto;html=1;exitX=1;exitY=0.5;exitDx=0;exitDy=0;entryX=-0.009;entryY=0.582;entryDx=0;entryDy=0;entryPerimeter=0;" parent="1" source="mUGOG3NJcuzfk7SKJ7IW-66" target="mUGOG3NJcuzfk7SKJ7IW-72" edge="1">
          <mxGeometry relative="1" as="geometry">
            <Array as="points">
              <mxPoint x="-333" y="1300" />
              <mxPoint x="-333" y="1113" />
            </Array>
          </mxGeometry>
        </mxCell>
        <mxCell id="mUGOG3NJcuzfk7SKJ7IW-77" value="静态请求" style="edgeLabel;html=1;align=center;verticalAlign=middle;resizable=0;points=[];" parent="mUGOG3NJcuzfk7SKJ7IW-75" vertex="1" connectable="0">
          <mxGeometry x="-0.6563" y="1" relative="1" as="geometry">
            <mxPoint x="16" y="-16" as="offset" />
          </mxGeometry>
        </mxCell>
        <mxCell id="mUGOG3NJcuzfk7SKJ7IW-79" style="edgeStyle=orthogonalEdgeStyle;rounded=0;orthogonalLoop=1;jettySize=auto;html=1;exitX=1;exitY=0.5;exitDx=0;exitDy=0;entryX=0;entryY=0.5;entryDx=0;entryDy=0;" parent="1" source="mUGOG3NJcuzfk7SKJ7IW-66" target="mUGOG3NJcuzfk7SKJ7IW-78" edge="1">
          <mxGeometry relative="1" as="geometry">
            <Array as="points">
              <mxPoint x="-333" y="1300" />
              <mxPoint x="-333" y="1460" />
            </Array>
          </mxGeometry>
        </mxCell>
        <mxCell id="mUGOG3NJcuzfk7SKJ7IW-80" value="直接访问（绕开网关）" style="edgeLabel;html=1;align=center;verticalAlign=middle;resizable=0;points=[];" parent="mUGOG3NJcuzfk7SKJ7IW-79" vertex="1" connectable="0">
          <mxGeometry x="-0.1781" y="1" relative="1" as="geometry">
            <mxPoint as="offset" />
          </mxGeometry>
        </mxCell>
        <mxCell id="mUGOG3NJcuzfk7SKJ7IW-66" value="Nginx" style="rounded=0;whiteSpace=wrap;html=1;" parent="1" vertex="1">
          <mxGeometry x="-468" y="1270" width="120" height="60" as="geometry" />
        </mxCell>
        <mxCell id="mUGOG3NJcuzfk7SKJ7IW-67" value="&lt;font style=&quot;font-size: 24px&quot;&gt;LB&lt;/font&gt;" style="text;html=1;align=center;verticalAlign=middle;resizable=0;points=[];autosize=1;strokeColor=none;fillColor=none;" parent="1" vertex="1">
          <mxGeometry x="-433" y="1233" width="50" height="20" as="geometry" />
        </mxCell>
        <mxCell id="mUGOG3NJcuzfk7SKJ7IW-68" value="Gateway集群" style="shape=process;whiteSpace=wrap;html=1;backgroundOutline=1;" parent="1" vertex="1">
          <mxGeometry x="-252" y="1270" width="120" height="60" as="geometry" />
        </mxCell>
        <mxCell id="mUGOG3NJcuzfk7SKJ7IW-72" value="" style="aspect=fixed;html=1;points=[];align=center;image;fontSize=12;image=img/lib/azure2/general/Resource_Explorer.svg;" parent="1" vertex="1">
          <mxGeometry x="-84.39999999999998" y="1080" width="68" height="56.00000000000001" as="geometry" />
        </mxCell>
        <mxCell id="mUGOG3NJcuzfk7SKJ7IW-78" value="tomcat" style="rounded=1;whiteSpace=wrap;html=1;" parent="1" vertex="1">
          <mxGeometry x="-252" y="1430" width="120" height="60" as="geometry" />
        </mxCell>
        <mxCell id="mUGOG3NJcuzfk7SKJ7IW-112" style="edgeStyle=orthogonalEdgeStyle;rounded=0;orthogonalLoop=1;jettySize=auto;html=1;exitX=1;exitY=0.5;exitDx=0;exitDy=0;entryX=0;entryY=0.5;entryDx=0;entryDy=0;" parent="1" source="mUGOG3NJcuzfk7SKJ7IW-82" target="mUGOG3NJcuzfk7SKJ7IW-108" edge="1">
          <mxGeometry relative="1" as="geometry" />
        </mxCell>
        <mxCell id="mUGOG3NJcuzfk7SKJ7IW-82" value="" style="aspect=fixed;perimeter=ellipsePerimeter;html=1;align=center;shadow=0;dashed=0;fontColor=#4277BB;labelBackgroundColor=#ffffff;fontSize=12;spacingTop=3;image;image=img/lib/ibm/users/browser.svg;" parent="1" vertex="1">
          <mxGeometry x="-636" y="1860" width="60" height="60" as="geometry" />
        </mxCell>
        <mxCell id="mUGOG3NJcuzfk7SKJ7IW-83" value="tomcat2" style="rounded=1;whiteSpace=wrap;html=1;" parent="1" vertex="1">
          <mxGeometry x="23" y="1860" width="120" height="60" as="geometry" />
        </mxCell>
        <mxCell id="mUGOG3NJcuzfk7SKJ7IW-84" value="tomcat3" style="rounded=1;whiteSpace=wrap;html=1;" parent="1" vertex="1">
          <mxGeometry x="23" y="1960" width="120" height="60" as="geometry" />
        </mxCell>
        <mxCell id="mUGOG3NJcuzfk7SKJ7IW-85" value="tomcat1" style="rounded=1;whiteSpace=wrap;html=1;" parent="1" vertex="1">
          <mxGeometry x="23" y="1770" width="120" height="60" as="geometry" />
        </mxCell>
        <mxCell id="mUGOG3NJcuzfk7SKJ7IW-86" style="edgeStyle=orthogonalEdgeStyle;rounded=0;orthogonalLoop=1;jettySize=auto;html=1;exitX=1;exitY=0.5;exitDx=0;exitDy=0;entryX=0;entryY=0.5;entryDx=0;entryDy=0;" parent="1" source="mUGOG3NJcuzfk7SKJ7IW-97" target="mUGOG3NJcuzfk7SKJ7IW-83" edge="1">
          <mxGeometry relative="1" as="geometry">
            <mxPoint x="-61" y="1890" as="sourcePoint" />
          </mxGeometry>
        </mxCell>
        <mxCell id="mUGOG3NJcuzfk7SKJ7IW-87" style="edgeStyle=orthogonalEdgeStyle;rounded=0;orthogonalLoop=1;jettySize=auto;html=1;exitX=1;exitY=0.5;exitDx=0;exitDy=0;entryX=0;entryY=0.5;entryDx=0;entryDy=0;" parent="1" source="mUGOG3NJcuzfk7SKJ7IW-97" target="mUGOG3NJcuzfk7SKJ7IW-85" edge="1">
          <mxGeometry relative="1" as="geometry">
            <mxPoint x="-61" y="1890" as="sourcePoint" />
          </mxGeometry>
        </mxCell>
        <mxCell id="mUGOG3NJcuzfk7SKJ7IW-88" style="edgeStyle=orthogonalEdgeStyle;rounded=0;orthogonalLoop=1;jettySize=auto;html=1;exitX=1;exitY=0.5;exitDx=0;exitDy=0;entryX=0;entryY=0.5;entryDx=0;entryDy=0;" parent="1" source="mUGOG3NJcuzfk7SKJ7IW-97" target="mUGOG3NJcuzfk7SKJ7IW-84" edge="1">
          <mxGeometry relative="1" as="geometry">
            <mxPoint x="-61" y="1890" as="sourcePoint" />
          </mxGeometry>
        </mxCell>
        <mxCell id="mUGOG3NJcuzfk7SKJ7IW-89" style="edgeStyle=orthogonalEdgeStyle;rounded=0;orthogonalLoop=1;jettySize=auto;html=1;entryX=0;entryY=0.5;entryDx=0;entryDy=0;" parent="1" target="mUGOG3NJcuzfk7SKJ7IW-97" edge="1">
          <mxGeometry relative="1" as="geometry">
            <mxPoint x="-296" y="1890" as="sourcePoint" />
          </mxGeometry>
        </mxCell>
        <mxCell id="mUGOG3NJcuzfk7SKJ7IW-90" value="动态请求" style="edgeLabel;html=1;align=center;verticalAlign=middle;resizable=0;points=[];" parent="mUGOG3NJcuzfk7SKJ7IW-89" vertex="1" connectable="0">
          <mxGeometry x="-0.201" y="3" relative="1" as="geometry">
            <mxPoint x="25" y="3" as="offset" />
          </mxGeometry>
        </mxCell>
        <mxCell id="mUGOG3NJcuzfk7SKJ7IW-91" style="edgeStyle=orthogonalEdgeStyle;rounded=0;orthogonalLoop=1;jettySize=auto;html=1;exitX=1;exitY=0.5;exitDx=0;exitDy=0;entryX=-0.009;entryY=0.582;entryDx=0;entryDy=0;entryPerimeter=0;" parent="1" source="mUGOG3NJcuzfk7SKJ7IW-108" target="mUGOG3NJcuzfk7SKJ7IW-98" edge="1">
          <mxGeometry relative="1" as="geometry">
            <Array as="points">
              <mxPoint x="-266" y="1890" />
              <mxPoint x="-266" y="1703" />
            </Array>
            <mxPoint x="-279" y="1890" as="sourcePoint" />
          </mxGeometry>
        </mxCell>
        <mxCell id="mUGOG3NJcuzfk7SKJ7IW-92" value="静态请求" style="edgeLabel;html=1;align=center;verticalAlign=middle;resizable=0;points=[];" parent="mUGOG3NJcuzfk7SKJ7IW-91" vertex="1" connectable="0">
          <mxGeometry x="-0.6563" y="1" relative="1" as="geometry">
            <mxPoint x="16" y="-16" as="offset" />
          </mxGeometry>
        </mxCell>
        <mxCell id="mUGOG3NJcuzfk7SKJ7IW-95" value="Nginx" style="rounded=0;whiteSpace=wrap;html=1;" parent="1" vertex="1">
          <mxGeometry x="-466" y="1800" width="120" height="60" as="geometry" />
        </mxCell>
        <mxCell id="mUGOG3NJcuzfk7SKJ7IW-96" value="&lt;font style=&quot;font-size: 24px&quot;&gt;LB&lt;/font&gt;" style="text;html=1;align=center;verticalAlign=middle;resizable=0;points=[];autosize=1;strokeColor=none;fillColor=none;" parent="1" vertex="1">
          <mxGeometry x="-431" y="1730" width="50" height="20" as="geometry" />
        </mxCell>
        <mxCell id="mUGOG3NJcuzfk7SKJ7IW-97" value="Gateway集群" style="shape=process;whiteSpace=wrap;html=1;backgroundOutline=1;" parent="1" vertex="1">
          <mxGeometry x="-183" y="1860" width="120" height="60" as="geometry" />
        </mxCell>
        <mxCell id="mUGOG3NJcuzfk7SKJ7IW-98" value="" style="aspect=fixed;html=1;points=[];align=center;image;fontSize=12;image=img/lib/azure2/general/Resource_Explorer.svg;" parent="1" vertex="1">
          <mxGeometry x="-15.399999999999977" y="1670" width="68" height="56.00000000000001" as="geometry" />
        </mxCell>
        <mxCell id="mUGOG3NJcuzfk7SKJ7IW-99" value="tomcat" style="rounded=1;whiteSpace=wrap;html=1;" parent="1" vertex="1">
          <mxGeometry x="-183" y="2020" width="120" height="60" as="geometry" />
        </mxCell>
        <mxCell id="mUGOG3NJcuzfk7SKJ7IW-100" value="Nginx&lt;br&gt;&lt;span style=&quot;color: rgb(51 , 51 , 51) ; font-family: &amp;#34;merriweather&amp;#34; , &amp;#34;pt serif&amp;#34; , &amp;#34;georgia&amp;#34; , &amp;#34;times new roman&amp;#34; , &amp;#34;stsong&amp;#34; , &amp;#34;segoe ui emoji&amp;#34; , serif ; font-size: 17.5px ; background-color: rgb(255 , 255 , 255)&quot;&gt;keepalived &lt;/span&gt;" style="rounded=0;whiteSpace=wrap;html=1;" parent="1" vertex="1">
          <mxGeometry x="-466" y="1920" width="120" height="60" as="geometry" />
        </mxCell>
        <mxCell id="mUGOG3NJcuzfk7SKJ7IW-104" value="Virtual IP" style="text;html=1;strokeColor=none;fillColor=none;align=center;verticalAlign=middle;whiteSpace=wrap;rounded=0;" parent="1" vertex="1">
          <mxGeometry x="-476" y="1880" width="60" height="20" as="geometry" />
        </mxCell>
        <mxCell id="mUGOG3NJcuzfk7SKJ7IW-106" value="" style="endArrow=classic;startArrow=classic;html=1;entryX=0.5;entryY=1;entryDx=0;entryDy=0;exitX=0.5;exitY=0;exitDx=0;exitDy=0;" parent="1" source="mUGOG3NJcuzfk7SKJ7IW-100" target="mUGOG3NJcuzfk7SKJ7IW-95" edge="1">
          <mxGeometry width="50" height="50" relative="1" as="geometry">
            <mxPoint x="-406" y="1910" as="sourcePoint" />
            <mxPoint x="-406.5" y="1880" as="targetPoint" />
          </mxGeometry>
        </mxCell>
        <mxCell id="mUGOG3NJcuzfk7SKJ7IW-113" value="" style="aspect=fixed;perimeter=ellipsePerimeter;html=1;align=center;shadow=0;dashed=0;fontColor=#4277BB;labelBackgroundColor=#ffffff;fontSize=12;spacingTop=3;image;image=img/lib/ibm/users/browser.svg;" parent="1" vertex="1">
          <mxGeometry x="-446" y="2182.5" width="60" height="60" as="geometry" />
        </mxCell>
        <mxCell id="mUGOG3NJcuzfk7SKJ7IW-116" style="edgeStyle=orthogonalEdgeStyle;rounded=0;orthogonalLoop=1;jettySize=auto;html=1;exitX=0;exitY=0.5;exitDx=0;exitDy=0;" parent="1" source="mUGOG3NJcuzfk7SKJ7IW-114" target="mUGOG3NJcuzfk7SKJ7IW-113" edge="1">
          <mxGeometry relative="1" as="geometry" />
        </mxCell>
        <mxCell id="mUGOG3NJcuzfk7SKJ7IW-117" style="edgeStyle=orthogonalEdgeStyle;rounded=0;orthogonalLoop=1;jettySize=auto;html=1;exitX=1;exitY=0.5;exitDx=0;exitDy=0;entryX=0;entryY=0.5;entryDx=0;entryDy=0;entryPerimeter=0;" parent="1" source="mUGOG3NJcuzfk7SKJ7IW-114" target="mUGOG3NJcuzfk7SKJ7IW-115" edge="1">
          <mxGeometry relative="1" as="geometry" />
        </mxCell>
        <mxCell id="mUGOG3NJcuzfk7SKJ7IW-114" value="Nginx内存缓存区" style="rounded=1;whiteSpace=wrap;html=1;" parent="1" vertex="1">
          <mxGeometry x="-236" y="2182.5" width="120" height="60" as="geometry" />
        </mxCell>
        <mxCell id="mUGOG3NJcuzfk7SKJ7IW-115" value="" style="sketch=0;aspect=fixed;pointerEvents=1;shadow=0;dashed=0;html=1;strokeColor=none;labelPosition=center;verticalLabelPosition=bottom;verticalAlign=top;align=center;fillColor=#00188D;shape=mxgraph.mscae.enterprise.cluster_server" parent="1" vertex="1">
          <mxGeometry x="32.60000000000002" y="2180" width="52" height="65" as="geometry" />
        </mxCell>
        <mxCell id="mUGOG3NJcuzfk7SKJ7IW-118" value="&lt;font style=&quot;font-size: 14px&quot;&gt;TCP连接&lt;/font&gt;" style="text;html=1;strokeColor=none;fillColor=none;align=center;verticalAlign=middle;whiteSpace=wrap;rounded=0;" parent="1" vertex="1">
          <mxGeometry x="-336" y="2182.5" width="60" height="20" as="geometry" />
        </mxCell>
        <mxCell id="mUGOG3NJcuzfk7SKJ7IW-119" value="&lt;font style=&quot;font-size: 14px&quot;&gt;TCP连接&lt;/font&gt;" style="text;html=1;strokeColor=none;fillColor=none;align=center;verticalAlign=middle;whiteSpace=wrap;rounded=0;" parent="1" vertex="1">
          <mxGeometry x="-69" y="2182.5" width="60" height="20" as="geometry" />
        </mxCell>
        <mxCell id="mUGOG3NJcuzfk7SKJ7IW-120" value="" style="aspect=fixed;perimeter=ellipsePerimeter;html=1;align=center;shadow=0;dashed=0;fontColor=#4277BB;labelBackgroundColor=#ffffff;fontSize=12;spacingTop=3;image;image=img/lib/ibm/users/browser.svg;" parent="1" vertex="1">
          <mxGeometry x="-446" y="2295" width="60" height="60" as="geometry" />
        </mxCell>
        <mxCell id="mUGOG3NJcuzfk7SKJ7IW-121" style="edgeStyle=orthogonalEdgeStyle;rounded=0;orthogonalLoop=1;jettySize=auto;html=1;exitX=0;exitY=0.5;exitDx=0;exitDy=0;" parent="1" source="mUGOG3NJcuzfk7SKJ7IW-123" target="mUGOG3NJcuzfk7SKJ7IW-120" edge="1">
          <mxGeometry relative="1" as="geometry" />
        </mxCell>
        <mxCell id="mUGOG3NJcuzfk7SKJ7IW-122" style="edgeStyle=orthogonalEdgeStyle;rounded=0;orthogonalLoop=1;jettySize=auto;html=1;exitX=1;exitY=0.5;exitDx=0;exitDy=0;entryX=0;entryY=0.5;entryDx=0;entryDy=0;entryPerimeter=0;" parent="1" source="mUGOG3NJcuzfk7SKJ7IW-123" target="mUGOG3NJcuzfk7SKJ7IW-124" edge="1">
          <mxGeometry relative="1" as="geometry" />
        </mxCell>
        <mxCell id="mUGOG3NJcuzfk7SKJ7IW-123" value="LVS" style="rounded=1;whiteSpace=wrap;html=1;" parent="1" vertex="1">
          <mxGeometry x="-236" y="2295" width="120" height="60" as="geometry" />
        </mxCell>
        <mxCell id="mUGOG3NJcuzfk7SKJ7IW-124" value="" style="sketch=0;aspect=fixed;pointerEvents=1;shadow=0;dashed=0;html=1;strokeColor=none;labelPosition=center;verticalLabelPosition=bottom;verticalAlign=top;align=center;fillColor=#00188D;shape=mxgraph.mscae.enterprise.cluster_server" parent="1" vertex="1">
          <mxGeometry x="32.60000000000002" y="2292.5" width="52" height="65" as="geometry" />
        </mxCell>
        <mxCell id="mUGOG3NJcuzfk7SKJ7IW-128" value="&lt;font style=&quot;font-size: 14px&quot;&gt;根据需要修改报头地址和源地址&lt;/font&gt;" style="text;html=1;strokeColor=none;fillColor=none;align=center;verticalAlign=middle;whiteSpace=wrap;rounded=0;" parent="1" vertex="1">
          <mxGeometry x="-226" y="2362.5" width="105" height="40" as="geometry" />
        </mxCell>
        <mxCell id="mUGOG3NJcuzfk7SKJ7IW-155" style="edgeStyle=orthogonalEdgeStyle;rounded=0;orthogonalLoop=1;jettySize=auto;html=1;exitX=1;exitY=0.5;exitDx=0;exitDy=0;entryX=0;entryY=0.5;entryDx=0;entryDy=0;" parent="1" source="mUGOG3NJcuzfk7SKJ7IW-156" target="mUGOG3NJcuzfk7SKJ7IW-182" edge="1">
          <mxGeometry relative="1" as="geometry">
            <mxPoint x="-637" y="2720" as="targetPoint" />
          </mxGeometry>
        </mxCell>
        <mxCell id="mUGOG3NJcuzfk7SKJ7IW-156" value="" style="aspect=fixed;perimeter=ellipsePerimeter;html=1;align=center;shadow=0;dashed=0;fontColor=#4277BB;labelBackgroundColor=#ffffff;fontSize=12;spacingTop=3;image;image=img/lib/ibm/users/browser.svg;" parent="1" vertex="1">
          <mxGeometry x="-732" y="2690" width="60" height="60" as="geometry" />
        </mxCell>
        <mxCell id="mUGOG3NJcuzfk7SKJ7IW-157" value="tomcat2" style="rounded=1;whiteSpace=wrap;html=1;" parent="1" vertex="1">
          <mxGeometry x="136" y="2690" width="120" height="60" as="geometry" />
        </mxCell>
        <mxCell id="mUGOG3NJcuzfk7SKJ7IW-158" value="tomcat3" style="rounded=1;whiteSpace=wrap;html=1;" parent="1" vertex="1">
          <mxGeometry x="136" y="2790" width="120" height="60" as="geometry" />
        </mxCell>
        <mxCell id="mUGOG3NJcuzfk7SKJ7IW-159" value="tomcat1" style="rounded=1;whiteSpace=wrap;html=1;" parent="1" vertex="1">
          <mxGeometry x="136" y="2600" width="120" height="60" as="geometry" />
        </mxCell>
        <mxCell id="mUGOG3NJcuzfk7SKJ7IW-160" style="edgeStyle=orthogonalEdgeStyle;rounded=0;orthogonalLoop=1;jettySize=auto;html=1;exitX=1;exitY=0.5;exitDx=0;exitDy=0;entryX=0;entryY=0.5;entryDx=0;entryDy=0;" parent="1" source="mUGOG3NJcuzfk7SKJ7IW-169" target="mUGOG3NJcuzfk7SKJ7IW-157" edge="1">
          <mxGeometry relative="1" as="geometry">
            <mxPoint x="52" y="2720" as="sourcePoint" />
          </mxGeometry>
        </mxCell>
        <mxCell id="mUGOG3NJcuzfk7SKJ7IW-161" style="edgeStyle=orthogonalEdgeStyle;rounded=0;orthogonalLoop=1;jettySize=auto;html=1;exitX=1;exitY=0.5;exitDx=0;exitDy=0;entryX=0;entryY=0.5;entryDx=0;entryDy=0;" parent="1" source="mUGOG3NJcuzfk7SKJ7IW-169" target="mUGOG3NJcuzfk7SKJ7IW-159" edge="1">
          <mxGeometry relative="1" as="geometry">
            <mxPoint x="52" y="2720" as="sourcePoint" />
          </mxGeometry>
        </mxCell>
        <mxCell id="mUGOG3NJcuzfk7SKJ7IW-162" style="edgeStyle=orthogonalEdgeStyle;rounded=0;orthogonalLoop=1;jettySize=auto;html=1;exitX=1;exitY=0.5;exitDx=0;exitDy=0;entryX=0;entryY=0.5;entryDx=0;entryDy=0;" parent="1" source="mUGOG3NJcuzfk7SKJ7IW-169" target="mUGOG3NJcuzfk7SKJ7IW-158" edge="1">
          <mxGeometry relative="1" as="geometry">
            <mxPoint x="52" y="2720" as="sourcePoint" />
          </mxGeometry>
        </mxCell>
        <mxCell id="mUGOG3NJcuzfk7SKJ7IW-163" style="edgeStyle=orthogonalEdgeStyle;rounded=0;orthogonalLoop=1;jettySize=auto;html=1;entryX=0;entryY=0.5;entryDx=0;entryDy=0;" parent="1" target="mUGOG3NJcuzfk7SKJ7IW-169" edge="1">
          <mxGeometry relative="1" as="geometry">
            <mxPoint x="-183" y="2720" as="sourcePoint" />
          </mxGeometry>
        </mxCell>
        <mxCell id="mUGOG3NJcuzfk7SKJ7IW-164" value="动态请求" style="edgeLabel;html=1;align=center;verticalAlign=middle;resizable=0;points=[];" parent="mUGOG3NJcuzfk7SKJ7IW-163" vertex="1" connectable="0">
          <mxGeometry x="-0.201" y="3" relative="1" as="geometry">
            <mxPoint x="25" y="3" as="offset" />
          </mxGeometry>
        </mxCell>
        <mxCell id="mUGOG3NJcuzfk7SKJ7IW-165" style="edgeStyle=orthogonalEdgeStyle;rounded=0;orthogonalLoop=1;jettySize=auto;html=1;exitX=1;exitY=0.5;exitDx=0;exitDy=0;entryX=-0.009;entryY=0.582;entryDx=0;entryDy=0;entryPerimeter=0;" parent="1" source="mUGOG3NJcuzfk7SKJ7IW-172" target="mUGOG3NJcuzfk7SKJ7IW-170" edge="1">
          <mxGeometry relative="1" as="geometry">
            <Array as="points">
              <mxPoint x="-153" y="2720" />
              <mxPoint x="-153" y="2533" />
            </Array>
            <mxPoint x="-188" y="2720" as="sourcePoint" />
          </mxGeometry>
        </mxCell>
        <mxCell id="mUGOG3NJcuzfk7SKJ7IW-166" value="静态请求" style="edgeLabel;html=1;align=center;verticalAlign=middle;resizable=0;points=[];" parent="mUGOG3NJcuzfk7SKJ7IW-165" vertex="1" connectable="0">
          <mxGeometry x="-0.6563" y="1" relative="1" as="geometry">
            <mxPoint x="11" y="-41" as="offset" />
          </mxGeometry>
        </mxCell>
        <mxCell id="mUGOG3NJcuzfk7SKJ7IW-167" value="Nginx" style="rounded=0;whiteSpace=wrap;html=1;" parent="1" vertex="1">
          <mxGeometry x="-353" y="2600" width="120" height="60" as="geometry" />
        </mxCell>
        <mxCell id="mUGOG3NJcuzfk7SKJ7IW-168" value="&lt;font style=&quot;font-size: 24px&quot;&gt;LB&lt;/font&gt;" style="text;html=1;align=center;verticalAlign=middle;resizable=0;points=[];autosize=1;strokeColor=none;fillColor=none;" parent="1" vertex="1">
          <mxGeometry x="-318" y="2530" width="50" height="20" as="geometry" />
        </mxCell>
        <mxCell id="mUGOG3NJcuzfk7SKJ7IW-169" value="Gateway集群" style="shape=process;whiteSpace=wrap;html=1;backgroundOutline=1;" parent="1" vertex="1">
          <mxGeometry x="-70" y="2690" width="120" height="60" as="geometry" />
        </mxCell>
        <mxCell id="mUGOG3NJcuzfk7SKJ7IW-170" value="" style="aspect=fixed;html=1;points=[];align=center;image;fontSize=12;image=img/lib/azure2/general/Resource_Explorer.svg;" parent="1" vertex="1">
          <mxGeometry x="97.60000000000002" y="2500" width="68" height="56.00000000000001" as="geometry" />
        </mxCell>
        <mxCell id="mUGOG3NJcuzfk7SKJ7IW-171" value="tomcat" style="rounded=1;whiteSpace=wrap;html=1;" parent="1" vertex="1">
          <mxGeometry x="-70" y="2870" width="120" height="60" as="geometry" />
        </mxCell>
        <mxCell id="mUGOG3NJcuzfk7SKJ7IW-172" value="Nginx" style="rounded=0;whiteSpace=wrap;html=1;" parent="1" vertex="1">
          <mxGeometry x="-353" y="2690" width="120" height="60" as="geometry" />
        </mxCell>
        <mxCell id="mUGOG3NJcuzfk7SKJ7IW-179" style="edgeStyle=orthogonalEdgeStyle;rounded=0;orthogonalLoop=1;jettySize=auto;html=1;exitX=1;exitY=0.5;exitDx=0;exitDy=0;entryX=0;entryY=0.75;entryDx=0;entryDy=0;" parent="1" source="mUGOG3NJcuzfk7SKJ7IW-175" target="mUGOG3NJcuzfk7SKJ7IW-169" edge="1">
          <mxGeometry relative="1" as="geometry">
            <Array as="points">
              <mxPoint x="-153" y="2800" />
              <mxPoint x="-153" y="2735" />
            </Array>
          </mxGeometry>
        </mxCell>
        <mxCell id="mUGOG3NJcuzfk7SKJ7IW-175" value="Nginx" style="rounded=0;whiteSpace=wrap;html=1;" parent="1" vertex="1">
          <mxGeometry x="-353" y="2770" width="120" height="60" as="geometry" />
        </mxCell>
        <mxCell id="mUGOG3NJcuzfk7SKJ7IW-176" style="edgeStyle=orthogonalEdgeStyle;rounded=0;orthogonalLoop=1;jettySize=auto;html=1;exitX=1;exitY=0.5;exitDx=0;exitDy=0;entryX=0;entryY=0.5;entryDx=0;entryDy=0;" parent="1" source="mUGOG3NJcuzfk7SKJ7IW-175" target="mUGOG3NJcuzfk7SKJ7IW-171" edge="1">
          <mxGeometry relative="1" as="geometry">
            <Array as="points">
              <mxPoint x="-153" y="2800" />
              <mxPoint x="-153" y="2900" />
            </Array>
            <mxPoint x="-178" y="2730" as="sourcePoint" />
            <mxPoint x="-60" y="2890" as="targetPoint" />
          </mxGeometry>
        </mxCell>
        <mxCell id="mUGOG3NJcuzfk7SKJ7IW-177" value="直接访问（绕开网关）" style="edgeLabel;html=1;align=center;verticalAlign=middle;resizable=0;points=[];" parent="mUGOG3NJcuzfk7SKJ7IW-176" vertex="1" connectable="0">
          <mxGeometry x="-0.3439" y="-1" relative="1" as="geometry">
            <mxPoint x="51" y="14" as="offset" />
          </mxGeometry>
        </mxCell>
        <mxCell id="mUGOG3NJcuzfk7SKJ7IW-188" style="edgeStyle=orthogonalEdgeStyle;rounded=0;orthogonalLoop=1;jettySize=auto;html=1;exitX=1;exitY=0.5;exitDx=0;exitDy=0;entryX=0;entryY=0.5;entryDx=0;entryDy=0;" parent="1" source="mUGOG3NJcuzfk7SKJ7IW-182" target="mUGOG3NJcuzfk7SKJ7IW-167" edge="1">
          <mxGeometry relative="1" as="geometry" />
        </mxCell>
        <mxCell id="mUGOG3NJcuzfk7SKJ7IW-189" style="edgeStyle=orthogonalEdgeStyle;rounded=0;orthogonalLoop=1;jettySize=auto;html=1;exitX=1;exitY=0.5;exitDx=0;exitDy=0;entryX=0;entryY=0.5;entryDx=0;entryDy=0;" parent="1" source="mUGOG3NJcuzfk7SKJ7IW-182" target="mUGOG3NJcuzfk7SKJ7IW-172" edge="1">
          <mxGeometry relative="1" as="geometry" />
        </mxCell>
        <mxCell id="mUGOG3NJcuzfk7SKJ7IW-190" style="edgeStyle=orthogonalEdgeStyle;rounded=0;orthogonalLoop=1;jettySize=auto;html=1;exitX=1;exitY=0.5;exitDx=0;exitDy=0;entryX=0;entryY=0.5;entryDx=0;entryDy=0;" parent="1" source="mUGOG3NJcuzfk7SKJ7IW-182" target="mUGOG3NJcuzfk7SKJ7IW-175" edge="1">
          <mxGeometry relative="1" as="geometry" />
        </mxCell>
        <mxCell id="mUGOG3NJcuzfk7SKJ7IW-182" value="" style="whiteSpace=wrap;html=1;aspect=fixed;" parent="1" vertex="1">
          <mxGeometry x="-632" y="2620" width="200" height="200" as="geometry" />
        </mxCell>
        <mxCell id="mUGOG3NJcuzfk7SKJ7IW-183" value="LVS" style="rounded=0;whiteSpace=wrap;html=1;" parent="1" vertex="1">
          <mxGeometry x="-582" y="2644" width="105" height="36" as="geometry" />
        </mxCell>
        <mxCell id="mUGOG3NJcuzfk7SKJ7IW-185" value="LVS&lt;br&gt;&lt;span style=&quot;color: rgb(51 , 51 , 51) ; font-family: &amp;#34;merriweather&amp;#34; , &amp;#34;pt serif&amp;#34; , &amp;#34;georgia&amp;#34; , &amp;#34;times new roman&amp;#34; , &amp;#34;stsong&amp;#34; , &amp;#34;segoe ui emoji&amp;#34; , serif ; font-size: 17.5px ; background-color: rgb(255 , 255 , 255)&quot;&gt;keepalived &lt;/span&gt;" style="rounded=0;whiteSpace=wrap;html=1;" parent="1" vertex="1">
          <mxGeometry x="-582" y="2744" width="105" height="56" as="geometry" />
        </mxCell>
        <mxCell id="mUGOG3NJcuzfk7SKJ7IW-187" value="" style="endArrow=classic;startArrow=classic;html=1;entryX=0.5;entryY=1;entryDx=0;entryDy=0;exitX=0.5;exitY=0;exitDx=0;exitDy=0;" parent="1" source="mUGOG3NJcuzfk7SKJ7IW-185" target="mUGOG3NJcuzfk7SKJ7IW-183" edge="1">
          <mxGeometry width="50" height="50" relative="1" as="geometry">
            <mxPoint x="-537" y="2730" as="sourcePoint" />
            <mxPoint x="-537.5" y="2700" as="targetPoint" />
          </mxGeometry>
        </mxCell>
        <mxCell id="mUGOG3NJcuzfk7SKJ7IW-192" style="edgeStyle=orthogonalEdgeStyle;rounded=0;orthogonalLoop=1;jettySize=auto;html=1;exitX=1;exitY=0.5;exitDx=0;exitDy=0;entryX=0;entryY=0.5;entryDx=0;entryDy=0;" parent="1" source="mUGOG3NJcuzfk7SKJ7IW-193" target="mUGOG3NJcuzfk7SKJ7IW-223" edge="1">
          <mxGeometry relative="1" as="geometry">
            <mxPoint x="-571" y="3300" as="targetPoint" />
          </mxGeometry>
        </mxCell>
        <mxCell id="mUGOG3NJcuzfk7SKJ7IW-226" style="edgeStyle=orthogonalEdgeStyle;rounded=0;orthogonalLoop=1;jettySize=auto;html=1;exitX=1;exitY=0.5;exitDx=0;exitDy=0;entryX=0;entryY=0.5;entryDx=0;entryDy=0;" parent="1" source="mUGOG3NJcuzfk7SKJ7IW-193" target="mUGOG3NJcuzfk7SKJ7IW-218" edge="1">
          <mxGeometry relative="1" as="geometry">
            <Array as="points">
              <mxPoint x="-640" y="3300" />
              <mxPoint x="-640" y="3235" />
            </Array>
          </mxGeometry>
        </mxCell>
        <mxCell id="mUGOG3NJcuzfk7SKJ7IW-227" style="edgeStyle=orthogonalEdgeStyle;rounded=0;orthogonalLoop=1;jettySize=auto;html=1;exitX=1;exitY=0.5;exitDx=0;exitDy=0;entryX=0;entryY=0.5;entryDx=0;entryDy=0;" parent="1" source="mUGOG3NJcuzfk7SKJ7IW-193" target="mUGOG3NJcuzfk7SKJ7IW-222" edge="1">
          <mxGeometry relative="1" as="geometry">
            <Array as="points">
              <mxPoint x="-640" y="3300" />
              <mxPoint x="-640" y="3361" />
            </Array>
          </mxGeometry>
        </mxCell>
        <mxCell id="mUGOG3NJcuzfk7SKJ7IW-236" style="edgeStyle=orthogonalEdgeStyle;rounded=0;orthogonalLoop=1;jettySize=auto;html=1;exitX=0.25;exitY=0;exitDx=0;exitDy=0;" parent="1" source="mUGOG3NJcuzfk7SKJ7IW-193" edge="1">
          <mxGeometry relative="1" as="geometry">
            <mxPoint x="-723" y="3180" as="targetPoint" />
          </mxGeometry>
        </mxCell>
        <mxCell id="mUGOG3NJcuzfk7SKJ7IW-193" value="" style="aspect=fixed;perimeter=ellipsePerimeter;html=1;align=center;shadow=0;dashed=0;fontColor=#4277BB;labelBackgroundColor=#ffffff;fontSize=12;spacingTop=3;image;image=img/lib/ibm/users/browser.svg;" parent="1" vertex="1">
          <mxGeometry x="-740" y="3271" width="60" height="60" as="geometry" />
        </mxCell>
        <mxCell id="mUGOG3NJcuzfk7SKJ7IW-194" value="tomcat2" style="rounded=1;whiteSpace=wrap;html=1;" parent="1" vertex="1">
          <mxGeometry x="197" y="3270" width="120" height="60" as="geometry" />
        </mxCell>
        <mxCell id="mUGOG3NJcuzfk7SKJ7IW-195" value="tomcat3" style="rounded=1;whiteSpace=wrap;html=1;" parent="1" vertex="1">
          <mxGeometry x="197" y="3370" width="120" height="60" as="geometry" />
        </mxCell>
        <mxCell id="mUGOG3NJcuzfk7SKJ7IW-196" value="tomcat1" style="rounded=1;whiteSpace=wrap;html=1;" parent="1" vertex="1">
          <mxGeometry x="197" y="3180" width="120" height="60" as="geometry" />
        </mxCell>
        <mxCell id="mUGOG3NJcuzfk7SKJ7IW-197" style="edgeStyle=orthogonalEdgeStyle;rounded=0;orthogonalLoop=1;jettySize=auto;html=1;exitX=1;exitY=0.5;exitDx=0;exitDy=0;entryX=0;entryY=0.5;entryDx=0;entryDy=0;" parent="1" source="mUGOG3NJcuzfk7SKJ7IW-206" target="mUGOG3NJcuzfk7SKJ7IW-194" edge="1">
          <mxGeometry relative="1" as="geometry">
            <mxPoint x="113" y="3300" as="sourcePoint" />
          </mxGeometry>
        </mxCell>
        <mxCell id="mUGOG3NJcuzfk7SKJ7IW-198" style="edgeStyle=orthogonalEdgeStyle;rounded=0;orthogonalLoop=1;jettySize=auto;html=1;exitX=1;exitY=0.5;exitDx=0;exitDy=0;entryX=0;entryY=0.5;entryDx=0;entryDy=0;" parent="1" source="mUGOG3NJcuzfk7SKJ7IW-206" target="mUGOG3NJcuzfk7SKJ7IW-196" edge="1">
          <mxGeometry relative="1" as="geometry">
            <mxPoint x="113" y="3300" as="sourcePoint" />
          </mxGeometry>
        </mxCell>
        <mxCell id="mUGOG3NJcuzfk7SKJ7IW-199" style="edgeStyle=orthogonalEdgeStyle;rounded=0;orthogonalLoop=1;jettySize=auto;html=1;exitX=1;exitY=0.5;exitDx=0;exitDy=0;entryX=0;entryY=0.5;entryDx=0;entryDy=0;" parent="1" source="mUGOG3NJcuzfk7SKJ7IW-206" target="mUGOG3NJcuzfk7SKJ7IW-195" edge="1">
          <mxGeometry relative="1" as="geometry">
            <mxPoint x="113" y="3300" as="sourcePoint" />
          </mxGeometry>
        </mxCell>
        <mxCell id="mUGOG3NJcuzfk7SKJ7IW-200" style="edgeStyle=orthogonalEdgeStyle;rounded=0;orthogonalLoop=1;jettySize=auto;html=1;entryX=0;entryY=0.5;entryDx=0;entryDy=0;" parent="1" target="mUGOG3NJcuzfk7SKJ7IW-206" edge="1">
          <mxGeometry relative="1" as="geometry">
            <mxPoint x="-122" y="3300" as="sourcePoint" />
          </mxGeometry>
        </mxCell>
        <mxCell id="mUGOG3NJcuzfk7SKJ7IW-201" value="动态请求" style="edgeLabel;html=1;align=center;verticalAlign=middle;resizable=0;points=[];" parent="mUGOG3NJcuzfk7SKJ7IW-200" vertex="1" connectable="0">
          <mxGeometry x="-0.201" y="3" relative="1" as="geometry">
            <mxPoint x="25" y="3" as="offset" />
          </mxGeometry>
        </mxCell>
        <mxCell id="mUGOG3NJcuzfk7SKJ7IW-202" style="edgeStyle=orthogonalEdgeStyle;rounded=0;orthogonalLoop=1;jettySize=auto;html=1;exitX=1;exitY=0.5;exitDx=0;exitDy=0;entryX=-0.009;entryY=0.582;entryDx=0;entryDy=0;entryPerimeter=0;" parent="1" source="mUGOG3NJcuzfk7SKJ7IW-209" target="mUGOG3NJcuzfk7SKJ7IW-207" edge="1">
          <mxGeometry relative="1" as="geometry">
            <Array as="points">
              <mxPoint x="-92" y="3300" />
              <mxPoint x="-92" y="3113" />
            </Array>
            <mxPoint x="-127" y="3300" as="sourcePoint" />
          </mxGeometry>
        </mxCell>
        <mxCell id="mUGOG3NJcuzfk7SKJ7IW-203" value="静态请求" style="edgeLabel;html=1;align=center;verticalAlign=middle;resizable=0;points=[];" parent="mUGOG3NJcuzfk7SKJ7IW-202" vertex="1" connectable="0">
          <mxGeometry x="-0.6563" y="1" relative="1" as="geometry">
            <mxPoint x="11" y="-41" as="offset" />
          </mxGeometry>
        </mxCell>
        <mxCell id="mUGOG3NJcuzfk7SKJ7IW-204" value="Nginx" style="rounded=0;whiteSpace=wrap;html=1;" parent="1" vertex="1">
          <mxGeometry x="-292" y="3180" width="120" height="60" as="geometry" />
        </mxCell>
        <mxCell id="mUGOG3NJcuzfk7SKJ7IW-205" value="&lt;font style=&quot;font-size: 24px&quot;&gt;LB&lt;/font&gt;" style="text;html=1;align=center;verticalAlign=middle;resizable=0;points=[];autosize=1;strokeColor=none;fillColor=none;" parent="1" vertex="1">
          <mxGeometry x="-257" y="3110" width="50" height="20" as="geometry" />
        </mxCell>
        <mxCell id="mUGOG3NJcuzfk7SKJ7IW-206" value="Gateway集群" style="shape=process;whiteSpace=wrap;html=1;backgroundOutline=1;" parent="1" vertex="1">
          <mxGeometry x="-9" y="3270" width="120" height="60" as="geometry" />
        </mxCell>
        <mxCell id="mUGOG3NJcuzfk7SKJ7IW-207" value="" style="aspect=fixed;html=1;points=[];align=center;image;fontSize=12;image=img/lib/azure2/general/Resource_Explorer.svg;" parent="1" vertex="1">
          <mxGeometry x="158.60000000000002" y="3080" width="68" height="56.00000000000001" as="geometry" />
        </mxCell>
        <mxCell id="mUGOG3NJcuzfk7SKJ7IW-208" value="tomcat" style="rounded=1;whiteSpace=wrap;html=1;" parent="1" vertex="1">
          <mxGeometry x="-9" y="3450" width="120" height="60" as="geometry" />
        </mxCell>
        <mxCell id="mUGOG3NJcuzfk7SKJ7IW-209" value="Nginx" style="rounded=0;whiteSpace=wrap;html=1;" parent="1" vertex="1">
          <mxGeometry x="-292" y="3270" width="120" height="60" as="geometry" />
        </mxCell>
        <mxCell id="mUGOG3NJcuzfk7SKJ7IW-210" style="edgeStyle=orthogonalEdgeStyle;rounded=0;orthogonalLoop=1;jettySize=auto;html=1;exitX=1;exitY=0.5;exitDx=0;exitDy=0;entryX=0;entryY=0.75;entryDx=0;entryDy=0;" parent="1" source="mUGOG3NJcuzfk7SKJ7IW-211" target="mUGOG3NJcuzfk7SKJ7IW-206" edge="1">
          <mxGeometry relative="1" as="geometry">
            <Array as="points">
              <mxPoint x="-92" y="3380" />
              <mxPoint x="-92" y="3315" />
            </Array>
          </mxGeometry>
        </mxCell>
        <mxCell id="mUGOG3NJcuzfk7SKJ7IW-211" value="Nginx" style="rounded=0;whiteSpace=wrap;html=1;" parent="1" vertex="1">
          <mxGeometry x="-292" y="3350" width="120" height="60" as="geometry" />
        </mxCell>
        <mxCell id="mUGOG3NJcuzfk7SKJ7IW-212" style="edgeStyle=orthogonalEdgeStyle;rounded=0;orthogonalLoop=1;jettySize=auto;html=1;exitX=1;exitY=0.5;exitDx=0;exitDy=0;entryX=0;entryY=0.5;entryDx=0;entryDy=0;" parent="1" source="mUGOG3NJcuzfk7SKJ7IW-211" target="mUGOG3NJcuzfk7SKJ7IW-208" edge="1">
          <mxGeometry relative="1" as="geometry">
            <Array as="points">
              <mxPoint x="-92" y="3380" />
              <mxPoint x="-92" y="3480" />
            </Array>
            <mxPoint x="-117" y="3310" as="sourcePoint" />
            <mxPoint x="1" y="3470" as="targetPoint" />
          </mxGeometry>
        </mxCell>
        <mxCell id="mUGOG3NJcuzfk7SKJ7IW-213" value="直接访问（绕开网关）" style="edgeLabel;html=1;align=center;verticalAlign=middle;resizable=0;points=[];" parent="mUGOG3NJcuzfk7SKJ7IW-212" vertex="1" connectable="0">
          <mxGeometry x="-0.3439" y="-1" relative="1" as="geometry">
            <mxPoint x="51" y="14" as="offset" />
          </mxGeometry>
        </mxCell>
        <mxCell id="mUGOG3NJcuzfk7SKJ7IW-214" style="edgeStyle=orthogonalEdgeStyle;rounded=0;orthogonalLoop=1;jettySize=auto;html=1;exitX=1;exitY=0.5;exitDx=0;exitDy=0;entryX=0;entryY=0.5;entryDx=0;entryDy=0;" parent="1" source="mUGOG3NJcuzfk7SKJ7IW-223" target="mUGOG3NJcuzfk7SKJ7IW-204" edge="1">
          <mxGeometry relative="1" as="geometry">
            <mxPoint x="-371" y="3300" as="sourcePoint" />
          </mxGeometry>
        </mxCell>
        <mxCell id="mUGOG3NJcuzfk7SKJ7IW-215" style="edgeStyle=orthogonalEdgeStyle;rounded=0;orthogonalLoop=1;jettySize=auto;html=1;exitX=1;exitY=0.5;exitDx=0;exitDy=0;entryX=0;entryY=0.5;entryDx=0;entryDy=0;" parent="1" source="mUGOG3NJcuzfk7SKJ7IW-223" target="mUGOG3NJcuzfk7SKJ7IW-209" edge="1">
          <mxGeometry relative="1" as="geometry">
            <mxPoint x="-371" y="3300" as="sourcePoint" />
          </mxGeometry>
        </mxCell>
        <mxCell id="mUGOG3NJcuzfk7SKJ7IW-216" style="edgeStyle=orthogonalEdgeStyle;rounded=0;orthogonalLoop=1;jettySize=auto;html=1;exitX=1;exitY=0.5;exitDx=0;exitDy=0;entryX=0;entryY=0.5;entryDx=0;entryDy=0;" parent="1" source="mUGOG3NJcuzfk7SKJ7IW-223" target="mUGOG3NJcuzfk7SKJ7IW-211" edge="1">
          <mxGeometry relative="1" as="geometry">
            <mxPoint x="-371" y="3300" as="sourcePoint" />
          </mxGeometry>
        </mxCell>
        <mxCell id="mUGOG3NJcuzfk7SKJ7IW-224" style="edgeStyle=orthogonalEdgeStyle;rounded=0;orthogonalLoop=1;jettySize=auto;html=1;exitX=1;exitY=0.5;exitDx=0;exitDy=0;entryX=0;entryY=0.5;entryDx=0;entryDy=0;" parent="1" source="mUGOG3NJcuzfk7SKJ7IW-218" target="mUGOG3NJcuzfk7SKJ7IW-204" edge="1">
          <mxGeometry relative="1" as="geometry">
            <Array as="points">
              <mxPoint x="-390" y="3235" />
              <mxPoint x="-390" y="3300" />
              <mxPoint x="-354" y="3300" />
              <mxPoint x="-354" y="3210" />
            </Array>
          </mxGeometry>
        </mxCell>
        <mxCell id="mUGOG3NJcuzfk7SKJ7IW-218" value="LVS" style="rounded=0;whiteSpace=wrap;html=1;" parent="1" vertex="1">
          <mxGeometry x="-522" y="3217" width="105" height="36" as="geometry" />
        </mxCell>
        <mxCell id="mUGOG3NJcuzfk7SKJ7IW-225" style="edgeStyle=orthogonalEdgeStyle;rounded=0;orthogonalLoop=1;jettySize=auto;html=1;exitX=1;exitY=0.5;exitDx=0;exitDy=0;entryX=0;entryY=0.5;entryDx=0;entryDy=0;" parent="1" source="mUGOG3NJcuzfk7SKJ7IW-222" target="mUGOG3NJcuzfk7SKJ7IW-209" edge="1">
          <mxGeometry relative="1" as="geometry">
            <Array as="points">
              <mxPoint x="-390" y="3361" />
              <mxPoint x="-390" y="3300" />
            </Array>
          </mxGeometry>
        </mxCell>
        <mxCell id="mUGOG3NJcuzfk7SKJ7IW-222" value="LVS" style="rounded=0;whiteSpace=wrap;html=1;" parent="1" vertex="1">
          <mxGeometry x="-521" y="3343" width="105" height="36" as="geometry" />
        </mxCell>
        <mxCell id="mUGOG3NJcuzfk7SKJ7IW-223" value="LVS" style="rounded=0;whiteSpace=wrap;html=1;" parent="1" vertex="1">
          <mxGeometry x="-521" y="3283" width="105" height="36" as="geometry" />
        </mxCell>
        <mxCell id="mUGOG3NJcuzfk7SKJ7IW-228" value="115.205.4.201" style="text;html=1;strokeColor=none;fillColor=none;align=center;verticalAlign=middle;whiteSpace=wrap;rounded=0;" parent="1" vertex="1">
          <mxGeometry x="-620" y="3210" width="70" height="10" as="geometry" />
        </mxCell>
        <mxCell id="mUGOG3NJcuzfk7SKJ7IW-229" value="115.205.4.202" style="text;html=1;strokeColor=none;fillColor=none;align=center;verticalAlign=middle;whiteSpace=wrap;rounded=0;" parent="1" vertex="1">
          <mxGeometry x="-620" y="3283" width="70" height="10" as="geometry" />
        </mxCell>
        <mxCell id="mUGOG3NJcuzfk7SKJ7IW-230" value="115.205.4.203" style="text;html=1;strokeColor=none;fillColor=none;align=center;verticalAlign=middle;whiteSpace=wrap;rounded=0;" parent="1" vertex="1">
          <mxGeometry x="-620" y="3340" width="70" height="10" as="geometry" />
        </mxCell>
        <mxCell id="mUGOG3NJcuzfk7SKJ7IW-232" value="" style="sketch=0;points=[[0.015,0.015,0],[0.985,0.015,0],[0.985,0.985,0],[0.015,0.985,0],[0.25,0,0],[0.5,0,0],[0.75,0,0],[1,0.25,0],[1,0.5,0],[1,0.75,0],[0.75,1,0],[0.5,1,0],[0.25,1,0],[0,0.75,0],[0,0.5,0],[0,0.25,0]];verticalLabelPosition=bottom;html=1;verticalAlign=top;aspect=fixed;align=center;pointerEvents=1;shape=mxgraph.cisco19.dns_server;fillColor=#005073;strokeColor=none;" parent="1" vertex="1">
          <mxGeometry x="-737" y="3080" width="27.500000000000004" height="50" as="geometry" />
        </mxCell>
        <mxCell id="mUGOG3NJcuzfk7SKJ7IW-233" value="&lt;font style=&quot;font-size: 14px&quot;&gt;example.com&lt;br&gt;&lt;br&gt;115.205.4.201&lt;br&gt;115.205.4.202&lt;br&gt;115.205.4.203&lt;/font&gt;" style="whiteSpace=wrap;html=1;aspect=fixed;" parent="1" vertex="1">
          <mxGeometry x="-694" y="3040" width="126" height="126" as="geometry" />
        </mxCell>
        <mxCell id="mUGOG3NJcuzfk7SKJ7IW-239" value="example.com" style="text;html=1;strokeColor=none;fillColor=none;align=center;verticalAlign=middle;whiteSpace=wrap;rounded=0;rotation=-90;" parent="1" vertex="1">
          <mxGeometry x="-780" y="3220" width="76" height="20" as="geometry" />
        </mxCell>
        <mxCell id="mUGOG3NJcuzfk7SKJ7IW-240" value="115.205.4.201" style="text;html=1;strokeColor=none;fillColor=none;align=center;verticalAlign=middle;whiteSpace=wrap;rounded=0;fontStyle=0;rotation=-90;" parent="1" vertex="1">
          <mxGeometry x="-717" y="3225" width="70" height="10" as="geometry" />
        </mxCell>
        <mxCell id="mUGOG3NJcuzfk7SKJ7IW-242" style="edgeStyle=orthogonalEdgeStyle;rounded=0;orthogonalLoop=1;jettySize=auto;html=1;exitX=0.25;exitY=1;exitDx=0;exitDy=0;entryX=0.75;entryY=0;entryDx=0;entryDy=0;" parent="1" source="mUGOG3NJcuzfk7SKJ7IW-243" target="mUGOG3NJcuzfk7SKJ7IW-248" edge="1">
          <mxGeometry relative="1" as="geometry" />
        </mxCell>
        <mxCell id="mUGOG3NJcuzfk7SKJ7IW-243" value="" style="rounded=1;whiteSpace=wrap;html=1;" parent="1" vertex="1">
          <mxGeometry x="-701" y="3570" width="190" height="160" as="geometry" />
        </mxCell>
        <mxCell id="mUGOG3NJcuzfk7SKJ7IW-245" style="edgeStyle=orthogonalEdgeStyle;rounded=0;orthogonalLoop=1;jettySize=auto;html=1;exitX=1;exitY=0.5;exitDx=0;exitDy=0;entryX=0;entryY=0.5;entryDx=0;entryDy=0;" parent="1" source="mUGOG3NJcuzfk7SKJ7IW-248" target="mUGOG3NJcuzfk7SKJ7IW-259" edge="1">
          <mxGeometry relative="1" as="geometry">
            <Array as="points">
              <mxPoint x="-698" y="3870" />
              <mxPoint x="-554" y="3870" />
              <mxPoint x="-554" y="3780" />
            </Array>
            <mxPoint x="-540" y="3805" as="targetPoint" />
          </mxGeometry>
        </mxCell>
        <mxCell id="mUGOG3NJcuzfk7SKJ7IW-246" style="edgeStyle=orthogonalEdgeStyle;rounded=0;orthogonalLoop=1;jettySize=auto;html=1;exitX=1;exitY=0.5;exitDx=0;exitDy=0;entryX=0;entryY=0.5;entryDx=0;entryDy=0;" parent="1" source="mUGOG3NJcuzfk7SKJ7IW-248" target="mUGOG3NJcuzfk7SKJ7IW-266" edge="1">
          <mxGeometry relative="1" as="geometry">
            <Array as="points">
              <mxPoint x="-698" y="3870" />
              <mxPoint x="-554" y="3870" />
              <mxPoint x="-554" y="3950" />
            </Array>
            <mxPoint x="-539" y="3931" as="targetPoint" />
          </mxGeometry>
        </mxCell>
        <mxCell id="mUGOG3NJcuzfk7SKJ7IW-247" style="edgeStyle=orthogonalEdgeStyle;rounded=0;orthogonalLoop=1;jettySize=auto;html=1;exitX=0.25;exitY=0;exitDx=0;exitDy=0;" parent="1" source="mUGOG3NJcuzfk7SKJ7IW-248" edge="1">
          <mxGeometry relative="1" as="geometry">
            <mxPoint x="-680" y="3730" as="targetPoint" />
          </mxGeometry>
        </mxCell>
        <mxCell id="mUGOG3NJcuzfk7SKJ7IW-284" style="edgeStyle=orthogonalEdgeStyle;rounded=0;orthogonalLoop=1;jettySize=auto;html=1;exitX=1;exitY=0.5;exitDx=0;exitDy=0;entryX=0;entryY=0.5;entryDx=0;entryDy=0;" parent="1" source="mUGOG3NJcuzfk7SKJ7IW-248" target="mUGOG3NJcuzfk7SKJ7IW-264" edge="1">
          <mxGeometry relative="1" as="geometry" />
        </mxCell>
        <mxCell id="mUGOG3NJcuzfk7SKJ7IW-248" value="" style="aspect=fixed;perimeter=ellipsePerimeter;html=1;align=center;shadow=0;dashed=0;fontColor=#4277BB;labelBackgroundColor=#ffffff;fontSize=12;spacingTop=3;image;image=img/lib/ibm/users/browser.svg;" parent="1" vertex="1">
          <mxGeometry x="-697" y="3840" width="60" height="60" as="geometry" />
        </mxCell>
        <mxCell id="mUGOG3NJcuzfk7SKJ7IW-249" value="tomcat2" style="rounded=1;whiteSpace=wrap;html=1;" parent="1" vertex="1">
          <mxGeometry x="179" y="3840" width="120" height="60" as="geometry" />
        </mxCell>
        <mxCell id="mUGOG3NJcuzfk7SKJ7IW-250" value="tomcat3" style="rounded=1;whiteSpace=wrap;html=1;" parent="1" vertex="1">
          <mxGeometry x="179" y="3940" width="120" height="60" as="geometry" />
        </mxCell>
        <mxCell id="mUGOG3NJcuzfk7SKJ7IW-251" value="tomcat1" style="rounded=1;whiteSpace=wrap;html=1;" parent="1" vertex="1">
          <mxGeometry x="179" y="3750" width="120" height="60" as="geometry" />
        </mxCell>
        <mxCell id="mUGOG3NJcuzfk7SKJ7IW-252" style="edgeStyle=orthogonalEdgeStyle;rounded=0;orthogonalLoop=1;jettySize=auto;html=1;exitX=1;exitY=0.5;exitDx=0;exitDy=0;entryX=0;entryY=0.5;entryDx=0;entryDy=0;" parent="1" source="mUGOG3NJcuzfk7SKJ7IW-261" target="mUGOG3NJcuzfk7SKJ7IW-249" edge="1">
          <mxGeometry relative="1" as="geometry">
            <mxPoint x="95" y="3870" as="sourcePoint" />
          </mxGeometry>
        </mxCell>
        <mxCell id="mUGOG3NJcuzfk7SKJ7IW-253" style="edgeStyle=orthogonalEdgeStyle;rounded=0;orthogonalLoop=1;jettySize=auto;html=1;exitX=1;exitY=0.5;exitDx=0;exitDy=0;entryX=0;entryY=0.5;entryDx=0;entryDy=0;" parent="1" source="mUGOG3NJcuzfk7SKJ7IW-261" target="mUGOG3NJcuzfk7SKJ7IW-251" edge="1">
          <mxGeometry relative="1" as="geometry">
            <mxPoint x="95" y="3870" as="sourcePoint" />
          </mxGeometry>
        </mxCell>
        <mxCell id="mUGOG3NJcuzfk7SKJ7IW-254" style="edgeStyle=orthogonalEdgeStyle;rounded=0;orthogonalLoop=1;jettySize=auto;html=1;exitX=1;exitY=0.5;exitDx=0;exitDy=0;entryX=0;entryY=0.5;entryDx=0;entryDy=0;" parent="1" source="mUGOG3NJcuzfk7SKJ7IW-261" target="mUGOG3NJcuzfk7SKJ7IW-250" edge="1">
          <mxGeometry relative="1" as="geometry">
            <mxPoint x="95" y="3870" as="sourcePoint" />
          </mxGeometry>
        </mxCell>
        <mxCell id="mUGOG3NJcuzfk7SKJ7IW-255" style="edgeStyle=orthogonalEdgeStyle;rounded=0;orthogonalLoop=1;jettySize=auto;html=1;entryX=0;entryY=0.5;entryDx=0;entryDy=0;" parent="1" target="mUGOG3NJcuzfk7SKJ7IW-261" edge="1">
          <mxGeometry relative="1" as="geometry">
            <mxPoint x="-140" y="3870" as="sourcePoint" />
          </mxGeometry>
        </mxCell>
        <mxCell id="mUGOG3NJcuzfk7SKJ7IW-256" value="动态请求" style="edgeLabel;html=1;align=center;verticalAlign=middle;resizable=0;points=[];" parent="mUGOG3NJcuzfk7SKJ7IW-255" vertex="1" connectable="0">
          <mxGeometry x="-0.201" y="3" relative="1" as="geometry">
            <mxPoint x="25" y="3" as="offset" />
          </mxGeometry>
        </mxCell>
        <mxCell id="mUGOG3NJcuzfk7SKJ7IW-257" style="edgeStyle=orthogonalEdgeStyle;rounded=0;orthogonalLoop=1;jettySize=auto;html=1;exitX=1;exitY=0.5;exitDx=0;exitDy=0;entryX=-0.009;entryY=0.582;entryDx=0;entryDy=0;entryPerimeter=0;" parent="1" source="mUGOG3NJcuzfk7SKJ7IW-264" target="mUGOG3NJcuzfk7SKJ7IW-262" edge="1">
          <mxGeometry relative="1" as="geometry">
            <Array as="points">
              <mxPoint x="-110" y="3870" />
              <mxPoint x="-110" y="3683" />
            </Array>
            <mxPoint x="-145" y="3870" as="sourcePoint" />
          </mxGeometry>
        </mxCell>
        <mxCell id="mUGOG3NJcuzfk7SKJ7IW-258" value="静态请求" style="edgeLabel;html=1;align=center;verticalAlign=middle;resizable=0;points=[];" parent="mUGOG3NJcuzfk7SKJ7IW-257" vertex="1" connectable="0">
          <mxGeometry x="-0.6563" y="1" relative="1" as="geometry">
            <mxPoint x="11" y="-41" as="offset" />
          </mxGeometry>
        </mxCell>
        <mxCell id="mUGOG3NJcuzfk7SKJ7IW-259" value="Nginx" style="rounded=0;whiteSpace=wrap;html=1;" parent="1" vertex="1">
          <mxGeometry x="-310" y="3750" width="120" height="60" as="geometry" />
        </mxCell>
        <mxCell id="mUGOG3NJcuzfk7SKJ7IW-260" value="&lt;font style=&quot;font-size: 24px&quot;&gt;LB&lt;/font&gt;" style="text;html=1;align=center;verticalAlign=middle;resizable=0;points=[];autosize=1;strokeColor=none;fillColor=none;" parent="1" vertex="1">
          <mxGeometry x="-275" y="3680" width="50" height="20" as="geometry" />
        </mxCell>
        <mxCell id="mUGOG3NJcuzfk7SKJ7IW-261" value="Gateway集群" style="shape=process;whiteSpace=wrap;html=1;backgroundOutline=1;" parent="1" vertex="1">
          <mxGeometry x="-27" y="3840" width="120" height="60" as="geometry" />
        </mxCell>
        <mxCell id="mUGOG3NJcuzfk7SKJ7IW-262" value="" style="aspect=fixed;html=1;points=[];align=center;image;fontSize=12;image=img/lib/azure2/general/Resource_Explorer.svg;" parent="1" vertex="1">
          <mxGeometry x="140.60000000000002" y="3650" width="68" height="56.00000000000001" as="geometry" />
        </mxCell>
        <mxCell id="mUGOG3NJcuzfk7SKJ7IW-263" value="tomcat" style="rounded=1;whiteSpace=wrap;html=1;" parent="1" vertex="1">
          <mxGeometry x="-27" y="4020" width="120" height="60" as="geometry" />
        </mxCell>
        <mxCell id="mUGOG3NJcuzfk7SKJ7IW-264" value="Nginx" style="rounded=0;whiteSpace=wrap;html=1;" parent="1" vertex="1">
          <mxGeometry x="-310" y="3840" width="120" height="60" as="geometry" />
        </mxCell>
        <mxCell id="mUGOG3NJcuzfk7SKJ7IW-265" style="edgeStyle=orthogonalEdgeStyle;rounded=0;orthogonalLoop=1;jettySize=auto;html=1;exitX=1;exitY=0.5;exitDx=0;exitDy=0;entryX=0;entryY=0.75;entryDx=0;entryDy=0;" parent="1" source="mUGOG3NJcuzfk7SKJ7IW-266" target="mUGOG3NJcuzfk7SKJ7IW-261" edge="1">
          <mxGeometry relative="1" as="geometry">
            <Array as="points">
              <mxPoint x="-110" y="3950" />
              <mxPoint x="-110" y="3885" />
            </Array>
          </mxGeometry>
        </mxCell>
        <mxCell id="mUGOG3NJcuzfk7SKJ7IW-266" value="Nginx" style="rounded=0;whiteSpace=wrap;html=1;" parent="1" vertex="1">
          <mxGeometry x="-310" y="3920" width="120" height="60" as="geometry" />
        </mxCell>
        <mxCell id="mUGOG3NJcuzfk7SKJ7IW-267" style="edgeStyle=orthogonalEdgeStyle;rounded=0;orthogonalLoop=1;jettySize=auto;html=1;exitX=1;exitY=0.5;exitDx=0;exitDy=0;entryX=0;entryY=0.5;entryDx=0;entryDy=0;" parent="1" source="mUGOG3NJcuzfk7SKJ7IW-266" target="mUGOG3NJcuzfk7SKJ7IW-263" edge="1">
          <mxGeometry relative="1" as="geometry">
            <Array as="points">
              <mxPoint x="-110" y="3950" />
              <mxPoint x="-110" y="4050" />
            </Array>
            <mxPoint x="-135" y="3880" as="sourcePoint" />
            <mxPoint x="-17" y="4040" as="targetPoint" />
          </mxGeometry>
        </mxCell>
        <mxCell id="mUGOG3NJcuzfk7SKJ7IW-268" value="直接访问（绕开网关）" style="edgeLabel;html=1;align=center;verticalAlign=middle;resizable=0;points=[];" parent="mUGOG3NJcuzfk7SKJ7IW-267" vertex="1" connectable="0">
          <mxGeometry x="-0.3439" y="-1" relative="1" as="geometry">
            <mxPoint x="51" y="14" as="offset" />
          </mxGeometry>
        </mxCell>
        <mxCell id="mUGOG3NJcuzfk7SKJ7IW-277" value="115.205.4.201" style="text;html=1;strokeColor=none;fillColor=none;align=center;verticalAlign=middle;whiteSpace=wrap;rounded=0;" parent="1" vertex="1">
          <mxGeometry x="-505" y="3760" width="70" height="10" as="geometry" />
        </mxCell>
        <mxCell id="mUGOG3NJcuzfk7SKJ7IW-278" value="115.205.4.202" style="text;html=1;strokeColor=none;fillColor=none;align=center;verticalAlign=middle;whiteSpace=wrap;rounded=0;" parent="1" vertex="1">
          <mxGeometry x="-504" y="3850" width="70" height="10" as="geometry" />
        </mxCell>
        <mxCell id="mUGOG3NJcuzfk7SKJ7IW-279" value="115.205.4.203" style="text;html=1;strokeColor=none;fillColor=none;align=center;verticalAlign=middle;whiteSpace=wrap;rounded=0;" parent="1" vertex="1">
          <mxGeometry x="-504" y="3930" width="70" height="10" as="geometry" />
        </mxCell>
        <mxCell id="mUGOG3NJcuzfk7SKJ7IW-280" value="" style="sketch=0;points=[[0.015,0.015,0],[0.985,0.015,0],[0.985,0.985,0],[0.015,0.985,0],[0.25,0,0],[0.5,0,0],[0.75,0,0],[1,0.25,0],[1,0.5,0],[1,0.75,0],[0.75,1,0],[0.5,1,0],[0.25,1,0],[0,0.75,0],[0,0.5,0],[0,0.25,0]];verticalLabelPosition=bottom;html=1;verticalAlign=top;aspect=fixed;align=center;pointerEvents=1;shape=mxgraph.cisco19.dns_server;fillColor=#005073;strokeColor=none;" parent="1" vertex="1">
          <mxGeometry x="-694" y="3630" width="27.500000000000004" height="50" as="geometry" />
        </mxCell>
        <mxCell id="mUGOG3NJcuzfk7SKJ7IW-281" value="&lt;font style=&quot;font-size: 14px&quot;&gt;example.com&lt;br&gt;&lt;br&gt;115.205.4.201&lt;br&gt;115.205.4.202&lt;br&gt;115.205.4.203&lt;/font&gt;" style="whiteSpace=wrap;html=1;aspect=fixed;" parent="1" vertex="1">
          <mxGeometry x="-651" y="3590" width="126" height="126" as="geometry" />
        </mxCell>
        <mxCell id="mUGOG3NJcuzfk7SKJ7IW-282" value="example.com" style="text;html=1;strokeColor=none;fillColor=none;align=center;verticalAlign=middle;whiteSpace=wrap;rounded=0;rotation=-90;" parent="1" vertex="1">
          <mxGeometry x="-737" y="3790" width="76" height="20" as="geometry" />
        </mxCell>
        <mxCell id="mUGOG3NJcuzfk7SKJ7IW-283" value="115.205.4.201" style="text;html=1;strokeColor=none;fillColor=none;align=center;verticalAlign=middle;whiteSpace=wrap;rounded=0;fontStyle=0;rotation=-90;" parent="1" vertex="1">
          <mxGeometry x="-674" y="3795" width="70" height="10" as="geometry" />
        </mxCell>
        <mxCell id="mUGOG3NJcuzfk7SKJ7IW-285" style="edgeStyle=orthogonalEdgeStyle;rounded=0;orthogonalLoop=1;jettySize=auto;html=1;exitX=0.25;exitY=1;exitDx=0;exitDy=0;entryX=0.75;entryY=0;entryDx=0;entryDy=0;" parent="1" source="mUGOG3NJcuzfk7SKJ7IW-286" target="mUGOG3NJcuzfk7SKJ7IW-291" edge="1">
          <mxGeometry relative="1" as="geometry" />
        </mxCell>
        <mxCell id="mUGOG3NJcuzfk7SKJ7IW-286" value="" style="rounded=1;whiteSpace=wrap;html=1;" parent="1" vertex="1">
          <mxGeometry x="-693" y="4120" width="190" height="160" as="geometry" />
        </mxCell>
        <mxCell id="mUGOG3NJcuzfk7SKJ7IW-287" style="edgeStyle=orthogonalEdgeStyle;rounded=0;orthogonalLoop=1;jettySize=auto;html=1;exitX=1;exitY=0.5;exitDx=0;exitDy=0;entryX=0;entryY=0.5;entryDx=0;entryDy=0;" parent="1" source="mUGOG3NJcuzfk7SKJ7IW-291" target="mUGOG3NJcuzfk7SKJ7IW-302" edge="1">
          <mxGeometry relative="1" as="geometry">
            <Array as="points">
              <mxPoint x="-690" y="4420" />
              <mxPoint x="-546" y="4420" />
              <mxPoint x="-546" y="4330" />
            </Array>
            <mxPoint x="-532" y="4355" as="targetPoint" />
          </mxGeometry>
        </mxCell>
        <mxCell id="mUGOG3NJcuzfk7SKJ7IW-288" style="edgeStyle=orthogonalEdgeStyle;rounded=0;orthogonalLoop=1;jettySize=auto;html=1;exitX=1;exitY=0.5;exitDx=0;exitDy=0;entryX=0;entryY=0.5;entryDx=0;entryDy=0;" parent="1" source="mUGOG3NJcuzfk7SKJ7IW-291" target="mUGOG3NJcuzfk7SKJ7IW-309" edge="1">
          <mxGeometry relative="1" as="geometry">
            <Array as="points">
              <mxPoint x="-690" y="4420" />
              <mxPoint x="-546" y="4420" />
              <mxPoint x="-546" y="4500" />
            </Array>
            <mxPoint x="-531" y="4481" as="targetPoint" />
          </mxGeometry>
        </mxCell>
        <mxCell id="mUGOG3NJcuzfk7SKJ7IW-289" style="edgeStyle=orthogonalEdgeStyle;rounded=0;orthogonalLoop=1;jettySize=auto;html=1;exitX=0.25;exitY=0;exitDx=0;exitDy=0;" parent="1" source="mUGOG3NJcuzfk7SKJ7IW-291" edge="1">
          <mxGeometry relative="1" as="geometry">
            <mxPoint x="-672" y="4280" as="targetPoint" />
          </mxGeometry>
        </mxCell>
        <mxCell id="mUGOG3NJcuzfk7SKJ7IW-290" style="edgeStyle=orthogonalEdgeStyle;rounded=0;orthogonalLoop=1;jettySize=auto;html=1;exitX=1;exitY=0.5;exitDx=0;exitDy=0;entryX=0;entryY=0.5;entryDx=0;entryDy=0;" parent="1" source="mUGOG3NJcuzfk7SKJ7IW-291" target="mUGOG3NJcuzfk7SKJ7IW-307" edge="1">
          <mxGeometry relative="1" as="geometry" />
        </mxCell>
        <mxCell id="mUGOG3NJcuzfk7SKJ7IW-291" value="" style="aspect=fixed;perimeter=ellipsePerimeter;html=1;align=center;shadow=0;dashed=0;fontColor=#4277BB;labelBackgroundColor=#ffffff;fontSize=12;spacingTop=3;image;image=img/lib/ibm/users/browser.svg;" parent="1" vertex="1">
          <mxGeometry x="-689" y="4390" width="60" height="60" as="geometry" />
        </mxCell>
        <mxCell id="mUGOG3NJcuzfk7SKJ7IW-292" value="tomcat2" style="rounded=1;whiteSpace=wrap;html=1;" parent="1" vertex="1">
          <mxGeometry x="187" y="4390" width="120" height="60" as="geometry" />
        </mxCell>
        <mxCell id="mUGOG3NJcuzfk7SKJ7IW-293" value="tomcat3" style="rounded=1;whiteSpace=wrap;html=1;" parent="1" vertex="1">
          <mxGeometry x="187" y="4490" width="120" height="60" as="geometry" />
        </mxCell>
        <mxCell id="mUGOG3NJcuzfk7SKJ7IW-294" value="tomcat1" style="rounded=1;whiteSpace=wrap;html=1;" parent="1" vertex="1">
          <mxGeometry x="187" y="4300" width="120" height="60" as="geometry" />
        </mxCell>
        <mxCell id="mUGOG3NJcuzfk7SKJ7IW-295" style="edgeStyle=orthogonalEdgeStyle;rounded=0;orthogonalLoop=1;jettySize=auto;html=1;exitX=1;exitY=0.5;exitDx=0;exitDy=0;entryX=0;entryY=0.5;entryDx=0;entryDy=0;" parent="1" source="mUGOG3NJcuzfk7SKJ7IW-304" target="mUGOG3NJcuzfk7SKJ7IW-292" edge="1">
          <mxGeometry relative="1" as="geometry">
            <mxPoint x="103" y="4420" as="sourcePoint" />
          </mxGeometry>
        </mxCell>
        <mxCell id="mUGOG3NJcuzfk7SKJ7IW-296" style="edgeStyle=orthogonalEdgeStyle;rounded=0;orthogonalLoop=1;jettySize=auto;html=1;exitX=1;exitY=0.5;exitDx=0;exitDy=0;entryX=0;entryY=0.5;entryDx=0;entryDy=0;" parent="1" source="mUGOG3NJcuzfk7SKJ7IW-304" target="mUGOG3NJcuzfk7SKJ7IW-294" edge="1">
          <mxGeometry relative="1" as="geometry">
            <mxPoint x="103" y="4420" as="sourcePoint" />
          </mxGeometry>
        </mxCell>
        <mxCell id="mUGOG3NJcuzfk7SKJ7IW-297" style="edgeStyle=orthogonalEdgeStyle;rounded=0;orthogonalLoop=1;jettySize=auto;html=1;exitX=1;exitY=0.5;exitDx=0;exitDy=0;entryX=0;entryY=0.5;entryDx=0;entryDy=0;" parent="1" source="mUGOG3NJcuzfk7SKJ7IW-304" target="mUGOG3NJcuzfk7SKJ7IW-293" edge="1">
          <mxGeometry relative="1" as="geometry">
            <mxPoint x="103" y="4420" as="sourcePoint" />
          </mxGeometry>
        </mxCell>
        <mxCell id="mUGOG3NJcuzfk7SKJ7IW-298" style="edgeStyle=orthogonalEdgeStyle;rounded=0;orthogonalLoop=1;jettySize=auto;html=1;entryX=0;entryY=0.5;entryDx=0;entryDy=0;" parent="1" target="mUGOG3NJcuzfk7SKJ7IW-304" edge="1">
          <mxGeometry relative="1" as="geometry">
            <mxPoint x="-132" y="4420" as="sourcePoint" />
          </mxGeometry>
        </mxCell>
        <mxCell id="mUGOG3NJcuzfk7SKJ7IW-299" value="动态请求" style="edgeLabel;html=1;align=center;verticalAlign=middle;resizable=0;points=[];" parent="mUGOG3NJcuzfk7SKJ7IW-298" vertex="1" connectable="0">
          <mxGeometry x="-0.201" y="3" relative="1" as="geometry">
            <mxPoint x="25" y="3" as="offset" />
          </mxGeometry>
        </mxCell>
        <mxCell id="mUGOG3NJcuzfk7SKJ7IW-300" style="edgeStyle=orthogonalEdgeStyle;rounded=0;orthogonalLoop=1;jettySize=auto;html=1;exitX=1;exitY=0.5;exitDx=0;exitDy=0;entryX=-0.009;entryY=0.582;entryDx=0;entryDy=0;entryPerimeter=0;" parent="1" source="mUGOG3NJcuzfk7SKJ7IW-307" target="mUGOG3NJcuzfk7SKJ7IW-305" edge="1">
          <mxGeometry relative="1" as="geometry">
            <Array as="points">
              <mxPoint x="-102" y="4420" />
              <mxPoint x="-102" y="4233" />
            </Array>
            <mxPoint x="-137" y="4420" as="sourcePoint" />
          </mxGeometry>
        </mxCell>
        <mxCell id="mUGOG3NJcuzfk7SKJ7IW-301" value="静态请求" style="edgeLabel;html=1;align=center;verticalAlign=middle;resizable=0;points=[];" parent="mUGOG3NJcuzfk7SKJ7IW-300" vertex="1" connectable="0">
          <mxGeometry x="-0.6563" y="1" relative="1" as="geometry">
            <mxPoint x="11" y="-41" as="offset" />
          </mxGeometry>
        </mxCell>
        <mxCell id="mUGOG3NJcuzfk7SKJ7IW-302" value="Nginx" style="rounded=0;whiteSpace=wrap;html=1;" parent="1" vertex="1">
          <mxGeometry x="-302" y="4300" width="120" height="60" as="geometry" />
        </mxCell>
        <mxCell id="mUGOG3NJcuzfk7SKJ7IW-303" value="&lt;font style=&quot;font-size: 24px&quot;&gt;LB&lt;/font&gt;" style="text;html=1;align=center;verticalAlign=middle;resizable=0;points=[];autosize=1;strokeColor=none;fillColor=none;" parent="1" vertex="1">
          <mxGeometry x="-267" y="4230" width="50" height="20" as="geometry" />
        </mxCell>
        <mxCell id="mUGOG3NJcuzfk7SKJ7IW-304" value="Gateway集群" style="shape=process;whiteSpace=wrap;html=1;backgroundOutline=1;" parent="1" vertex="1">
          <mxGeometry x="-19" y="4390" width="120" height="60" as="geometry" />
        </mxCell>
        <mxCell id="mUGOG3NJcuzfk7SKJ7IW-305" value="" style="aspect=fixed;html=1;points=[];align=center;image;fontSize=12;image=img/lib/azure2/general/Resource_Explorer.svg;" parent="1" vertex="1">
          <mxGeometry x="148.60000000000002" y="4200" width="68" height="56.00000000000001" as="geometry" />
        </mxCell>
        <mxCell id="mUGOG3NJcuzfk7SKJ7IW-306" value="tomcat" style="rounded=1;whiteSpace=wrap;html=1;" parent="1" vertex="1">
          <mxGeometry x="-19" y="4570" width="120" height="60" as="geometry" />
        </mxCell>
        <mxCell id="mUGOG3NJcuzfk7SKJ7IW-307" value="Nginx" style="rounded=0;whiteSpace=wrap;html=1;" parent="1" vertex="1">
          <mxGeometry x="-302" y="4390" width="120" height="60" as="geometry" />
        </mxCell>
        <mxCell id="mUGOG3NJcuzfk7SKJ7IW-308" style="edgeStyle=orthogonalEdgeStyle;rounded=0;orthogonalLoop=1;jettySize=auto;html=1;exitX=1;exitY=0.5;exitDx=0;exitDy=0;entryX=0;entryY=0.75;entryDx=0;entryDy=0;" parent="1" source="mUGOG3NJcuzfk7SKJ7IW-309" target="mUGOG3NJcuzfk7SKJ7IW-304" edge="1">
          <mxGeometry relative="1" as="geometry">
            <Array as="points">
              <mxPoint x="-102" y="4500" />
              <mxPoint x="-102" y="4435" />
            </Array>
          </mxGeometry>
        </mxCell>
        <mxCell id="mUGOG3NJcuzfk7SKJ7IW-309" value="Nginx" style="rounded=0;whiteSpace=wrap;html=1;" parent="1" vertex="1">
          <mxGeometry x="-302" y="4470" width="120" height="60" as="geometry" />
        </mxCell>
        <mxCell id="mUGOG3NJcuzfk7SKJ7IW-310" style="edgeStyle=orthogonalEdgeStyle;rounded=0;orthogonalLoop=1;jettySize=auto;html=1;exitX=1;exitY=0.5;exitDx=0;exitDy=0;entryX=0;entryY=0.5;entryDx=0;entryDy=0;" parent="1" source="mUGOG3NJcuzfk7SKJ7IW-309" target="mUGOG3NJcuzfk7SKJ7IW-306" edge="1">
          <mxGeometry relative="1" as="geometry">
            <Array as="points">
              <mxPoint x="-102" y="4500" />
              <mxPoint x="-102" y="4600" />
            </Array>
            <mxPoint x="-127" y="4430" as="sourcePoint" />
            <mxPoint x="-9" y="4590" as="targetPoint" />
          </mxGeometry>
        </mxCell>
        <mxCell id="mUGOG3NJcuzfk7SKJ7IW-311" value="直接访问（绕开网关）" style="edgeLabel;html=1;align=center;verticalAlign=middle;resizable=0;points=[];" parent="mUGOG3NJcuzfk7SKJ7IW-310" vertex="1" connectable="0">
          <mxGeometry x="-0.3439" y="-1" relative="1" as="geometry">
            <mxPoint x="51" y="14" as="offset" />
          </mxGeometry>
        </mxCell>
        <mxCell id="mUGOG3NJcuzfk7SKJ7IW-312" value="115.205.4.201" style="text;html=1;strokeColor=none;fillColor=none;align=center;verticalAlign=middle;whiteSpace=wrap;rounded=0;" parent="1" vertex="1">
          <mxGeometry x="-497" y="4310" width="70" height="10" as="geometry" />
        </mxCell>
        <mxCell id="mUGOG3NJcuzfk7SKJ7IW-313" value="115.205.4.202" style="text;html=1;strokeColor=none;fillColor=none;align=center;verticalAlign=middle;whiteSpace=wrap;rounded=0;" parent="1" vertex="1">
          <mxGeometry x="-496" y="4400" width="70" height="10" as="geometry" />
        </mxCell>
        <mxCell id="mUGOG3NJcuzfk7SKJ7IW-314" value="115.205.4.203" style="text;html=1;strokeColor=none;fillColor=none;align=center;verticalAlign=middle;whiteSpace=wrap;rounded=0;" parent="1" vertex="1">
          <mxGeometry x="-496" y="4480" width="70" height="10" as="geometry" />
        </mxCell>
        <mxCell id="mUGOG3NJcuzfk7SKJ7IW-315" value="" style="sketch=0;points=[[0.015,0.015,0],[0.985,0.015,0],[0.985,0.985,0],[0.015,0.985,0],[0.25,0,0],[0.5,0,0],[0.75,0,0],[1,0.25,0],[1,0.5,0],[1,0.75,0],[0.75,1,0],[0.5,1,0],[0.25,1,0],[0,0.75,0],[0,0.5,0],[0,0.25,0]];verticalLabelPosition=bottom;html=1;verticalAlign=top;aspect=fixed;align=center;pointerEvents=1;shape=mxgraph.cisco19.dns_server;fillColor=#005073;strokeColor=none;" parent="1" vertex="1">
          <mxGeometry x="-686" y="4180" width="27.500000000000004" height="50" as="geometry" />
        </mxCell>
        <mxCell id="mUGOG3NJcuzfk7SKJ7IW-316" value="&lt;font style=&quot;font-size: 14px&quot;&gt;example.com&lt;br&gt;&lt;br&gt;115.205.4.201&lt;br&gt;115.205.4.202&lt;br&gt;115.205.4.203&lt;/font&gt;" style="whiteSpace=wrap;html=1;aspect=fixed;" parent="1" vertex="1">
          <mxGeometry x="-643" y="4140" width="126" height="126" as="geometry" />
        </mxCell>
        <mxCell id="mUGOG3NJcuzfk7SKJ7IW-317" value="example.com" style="text;html=1;strokeColor=none;fillColor=none;align=center;verticalAlign=middle;whiteSpace=wrap;rounded=0;rotation=-90;" parent="1" vertex="1">
          <mxGeometry x="-729" y="4340" width="76" height="20" as="geometry" />
        </mxCell>
        <mxCell id="mUGOG3NJcuzfk7SKJ7IW-318" value="115.205.4.201" style="text;html=1;strokeColor=none;fillColor=none;align=center;verticalAlign=middle;whiteSpace=wrap;rounded=0;fontStyle=0;rotation=-90;" parent="1" vertex="1">
          <mxGeometry x="-666" y="4345" width="70" height="10" as="geometry" />
        </mxCell>
        <mxCell id="mUGOG3NJcuzfk7SKJ7IW-328" style="edgeStyle=orthogonalEdgeStyle;rounded=0;orthogonalLoop=1;jettySize=auto;html=1;exitX=1;exitY=0.5;exitDx=0;exitDy=0;exitPerimeter=0;entryX=0;entryY=0.5;entryDx=0;entryDy=0;" parent="1" source="mUGOG3NJcuzfk7SKJ7IW-319" target="mUGOG3NJcuzfk7SKJ7IW-326" edge="1">
          <mxGeometry relative="1" as="geometry" />
        </mxCell>
        <mxCell id="mUGOG3NJcuzfk7SKJ7IW-319" value="" style="sketch=0;points=[[0.015,0.015,0],[0.985,0.015,0],[0.985,0.985,0],[0.015,0.985,0],[0.25,0,0],[0.5,0,0],[0.75,0,0],[1,0.25,0],[1,0.5,0],[1,0.75,0],[0.75,1,0],[0.5,1,0],[0.25,1,0],[0,0.75,0],[0,0.5,0],[0,0.25,0]];verticalLabelPosition=bottom;html=1;verticalAlign=top;aspect=fixed;align=center;pointerEvents=1;shape=mxgraph.cisco19.dns_server;fillColor=#005073;strokeColor=none;" parent="1" vertex="1">
          <mxGeometry x="-674.5" y="4575" width="27.500000000000004" height="50" as="geometry" />
        </mxCell>
        <mxCell id="mUGOG3NJcuzfk7SKJ7IW-325" value="" style="endArrow=classic;html=1;exitX=0.5;exitY=1;exitDx=0;exitDy=0;entryX=0.5;entryY=0;entryDx=0;entryDy=0;entryPerimeter=0;" parent="1" source="mUGOG3NJcuzfk7SKJ7IW-291" target="mUGOG3NJcuzfk7SKJ7IW-319" edge="1">
          <mxGeometry width="50" height="50" relative="1" as="geometry">
            <mxPoint x="-746" y="4540" as="sourcePoint" />
            <mxPoint x="-726" y="4560" as="targetPoint" />
          </mxGeometry>
        </mxCell>
        <mxCell id="mUGOG3NJcuzfk7SKJ7IW-331" value="static.example.com/example.png" style="edgeLabel;html=1;align=center;verticalAlign=middle;resizable=0;points=[];" parent="mUGOG3NJcuzfk7SKJ7IW-325" vertex="1" connectable="0">
          <mxGeometry x="0.3604" y="-2" relative="1" as="geometry">
            <mxPoint as="offset" />
          </mxGeometry>
        </mxCell>
        <mxCell id="mUGOG3NJcuzfk7SKJ7IW-326" value="" style="strokeColor=#dddddd;shadow=1;strokeWidth=1;rounded=1;absoluteArcSize=1;arcSize=2;" parent="1" vertex="1">
          <mxGeometry x="-555" y="4578" width="120" height="44" as="geometry" />
        </mxCell>
        <mxCell id="mUGOG3NJcuzfk7SKJ7IW-327" value="CDN&#xa;Interconnect" style="sketch=0;dashed=0;connectable=0;html=1;fillColor=#757575;strokeColor=none;shape=mxgraph.gcp2.google_network_edge_cache;part=1;labelPosition=right;verticalLabelPosition=middle;align=left;verticalAlign=middle;spacingLeft=5;fontSize=12;" parent="mUGOG3NJcuzfk7SKJ7IW-326" vertex="1">
          <mxGeometry y="0.5" width="32" height="32" relative="1" as="geometry">
            <mxPoint x="5" y="-16" as="offset" />
          </mxGeometry>
        </mxCell>
        <mxCell id="mUGOG3NJcuzfk7SKJ7IW-330" value="" style="endArrow=classic;html=1;exitX=0.5;exitY=0;exitDx=0;exitDy=0;entryX=0.5;entryY=1;entryDx=0;entryDy=0;" parent="1" source="mUGOG3NJcuzfk7SKJ7IW-326" target="mUGOG3NJcuzfk7SKJ7IW-291" edge="1">
          <mxGeometry width="50" height="50" relative="1" as="geometry">
            <mxPoint x="-376" y="4620" as="sourcePoint" />
            <mxPoint x="-326" y="4570" as="targetPoint" />
          </mxGeometry>
        </mxCell>
        <mxCell id="mUGOG3NJcuzfk7SKJ7IW-367" style="edgeStyle=orthogonalEdgeStyle;rounded=0;orthogonalLoop=1;jettySize=auto;html=1;exitX=0.25;exitY=1;exitDx=0;exitDy=0;entryX=0.75;entryY=0;entryDx=0;entryDy=0;" parent="1" source="mUGOG3NJcuzfk7SKJ7IW-368" target="mUGOG3NJcuzfk7SKJ7IW-373" edge="1">
          <mxGeometry relative="1" as="geometry" />
        </mxCell>
        <mxCell id="mUGOG3NJcuzfk7SKJ7IW-368" value="" style="rounded=1;whiteSpace=wrap;html=1;" parent="1" vertex="1">
          <mxGeometry x="-754" y="4720" width="190" height="160" as="geometry" />
        </mxCell>
        <mxCell id="mUGOG3NJcuzfk7SKJ7IW-369" style="edgeStyle=orthogonalEdgeStyle;rounded=0;orthogonalLoop=1;jettySize=auto;html=1;exitX=1;exitY=0.5;exitDx=0;exitDy=0;entryX=0;entryY=0.5;entryDx=0;entryDy=0;" parent="1" source="mUGOG3NJcuzfk7SKJ7IW-373" target="mUGOG3NJcuzfk7SKJ7IW-401" edge="1">
          <mxGeometry relative="1" as="geometry">
            <mxPoint x="-581" y="5000" as="targetPoint" />
          </mxGeometry>
        </mxCell>
        <mxCell id="mUGOG3NJcuzfk7SKJ7IW-370" style="edgeStyle=orthogonalEdgeStyle;rounded=0;orthogonalLoop=1;jettySize=auto;html=1;exitX=1;exitY=0.5;exitDx=0;exitDy=0;entryX=0;entryY=0.5;entryDx=0;entryDy=0;" parent="1" source="mUGOG3NJcuzfk7SKJ7IW-373" target="mUGOG3NJcuzfk7SKJ7IW-398" edge="1">
          <mxGeometry relative="1" as="geometry">
            <Array as="points">
              <mxPoint x="-650" y="5000" />
              <mxPoint x="-650" y="4935" />
            </Array>
          </mxGeometry>
        </mxCell>
        <mxCell id="mUGOG3NJcuzfk7SKJ7IW-371" style="edgeStyle=orthogonalEdgeStyle;rounded=0;orthogonalLoop=1;jettySize=auto;html=1;exitX=1;exitY=0.5;exitDx=0;exitDy=0;entryX=0;entryY=0.5;entryDx=0;entryDy=0;" parent="1" source="mUGOG3NJcuzfk7SKJ7IW-373" target="mUGOG3NJcuzfk7SKJ7IW-400" edge="1">
          <mxGeometry relative="1" as="geometry">
            <Array as="points">
              <mxPoint x="-650" y="5000" />
              <mxPoint x="-650" y="5061" />
            </Array>
          </mxGeometry>
        </mxCell>
        <mxCell id="mUGOG3NJcuzfk7SKJ7IW-372" style="edgeStyle=orthogonalEdgeStyle;rounded=0;orthogonalLoop=1;jettySize=auto;html=1;exitX=0.25;exitY=0;exitDx=0;exitDy=0;" parent="1" source="mUGOG3NJcuzfk7SKJ7IW-373" edge="1">
          <mxGeometry relative="1" as="geometry">
            <mxPoint x="-733" y="4880" as="targetPoint" />
          </mxGeometry>
        </mxCell>
        <mxCell id="mUGOG3NJcuzfk7SKJ7IW-373" value="" style="aspect=fixed;perimeter=ellipsePerimeter;html=1;align=center;shadow=0;dashed=0;fontColor=#4277BB;labelBackgroundColor=#ffffff;fontSize=12;spacingTop=3;image;image=img/lib/ibm/users/browser.svg;" parent="1" vertex="1">
          <mxGeometry x="-750" y="4971" width="60" height="60" as="geometry" />
        </mxCell>
        <mxCell id="mUGOG3NJcuzfk7SKJ7IW-374" value="tomcat2" style="rounded=1;whiteSpace=wrap;html=1;" parent="1" vertex="1">
          <mxGeometry x="187" y="4970" width="120" height="60" as="geometry" />
        </mxCell>
        <mxCell id="mUGOG3NJcuzfk7SKJ7IW-375" value="tomcat3" style="rounded=1;whiteSpace=wrap;html=1;" parent="1" vertex="1">
          <mxGeometry x="187" y="5070" width="120" height="60" as="geometry" />
        </mxCell>
        <mxCell id="mUGOG3NJcuzfk7SKJ7IW-376" value="tomcat1" style="rounded=1;whiteSpace=wrap;html=1;" parent="1" vertex="1">
          <mxGeometry x="187" y="4880" width="120" height="60" as="geometry" />
        </mxCell>
        <mxCell id="mUGOG3NJcuzfk7SKJ7IW-377" style="edgeStyle=orthogonalEdgeStyle;rounded=0;orthogonalLoop=1;jettySize=auto;html=1;exitX=1;exitY=0.5;exitDx=0;exitDy=0;entryX=0;entryY=0.5;entryDx=0;entryDy=0;" parent="1" source="mUGOG3NJcuzfk7SKJ7IW-386" target="mUGOG3NJcuzfk7SKJ7IW-374" edge="1">
          <mxGeometry relative="1" as="geometry">
            <mxPoint x="103" y="5000" as="sourcePoint" />
          </mxGeometry>
        </mxCell>
        <mxCell id="mUGOG3NJcuzfk7SKJ7IW-378" style="edgeStyle=orthogonalEdgeStyle;rounded=0;orthogonalLoop=1;jettySize=auto;html=1;exitX=1;exitY=0.5;exitDx=0;exitDy=0;entryX=0;entryY=0.5;entryDx=0;entryDy=0;" parent="1" source="mUGOG3NJcuzfk7SKJ7IW-386" target="mUGOG3NJcuzfk7SKJ7IW-376" edge="1">
          <mxGeometry relative="1" as="geometry">
            <mxPoint x="103" y="5000" as="sourcePoint" />
          </mxGeometry>
        </mxCell>
        <mxCell id="mUGOG3NJcuzfk7SKJ7IW-379" style="edgeStyle=orthogonalEdgeStyle;rounded=0;orthogonalLoop=1;jettySize=auto;html=1;exitX=1;exitY=0.5;exitDx=0;exitDy=0;entryX=0;entryY=0.5;entryDx=0;entryDy=0;" parent="1" source="mUGOG3NJcuzfk7SKJ7IW-386" target="mUGOG3NJcuzfk7SKJ7IW-375" edge="1">
          <mxGeometry relative="1" as="geometry">
            <mxPoint x="103" y="5000" as="sourcePoint" />
          </mxGeometry>
        </mxCell>
        <mxCell id="mUGOG3NJcuzfk7SKJ7IW-380" style="edgeStyle=orthogonalEdgeStyle;rounded=0;orthogonalLoop=1;jettySize=auto;html=1;entryX=0;entryY=0.5;entryDx=0;entryDy=0;" parent="1" target="mUGOG3NJcuzfk7SKJ7IW-386" edge="1">
          <mxGeometry relative="1" as="geometry">
            <mxPoint x="-132" y="5000" as="sourcePoint" />
          </mxGeometry>
        </mxCell>
        <mxCell id="mUGOG3NJcuzfk7SKJ7IW-381" value="动态请求" style="edgeLabel;html=1;align=center;verticalAlign=middle;resizable=0;points=[];" parent="mUGOG3NJcuzfk7SKJ7IW-380" vertex="1" connectable="0">
          <mxGeometry x="-0.201" y="3" relative="1" as="geometry">
            <mxPoint x="25" y="3" as="offset" />
          </mxGeometry>
        </mxCell>
        <mxCell id="mUGOG3NJcuzfk7SKJ7IW-382" style="edgeStyle=orthogonalEdgeStyle;rounded=0;orthogonalLoop=1;jettySize=auto;html=1;exitX=1;exitY=0.5;exitDx=0;exitDy=0;entryX=-0.009;entryY=0.582;entryDx=0;entryDy=0;entryPerimeter=0;" parent="1" source="mUGOG3NJcuzfk7SKJ7IW-389" target="mUGOG3NJcuzfk7SKJ7IW-387" edge="1">
          <mxGeometry relative="1" as="geometry">
            <Array as="points">
              <mxPoint x="-102" y="5000" />
              <mxPoint x="-102" y="4813" />
            </Array>
            <mxPoint x="-137" y="5000" as="sourcePoint" />
          </mxGeometry>
        </mxCell>
        <mxCell id="mUGOG3NJcuzfk7SKJ7IW-383" value="静态请求" style="edgeLabel;html=1;align=center;verticalAlign=middle;resizable=0;points=[];" parent="mUGOG3NJcuzfk7SKJ7IW-382" vertex="1" connectable="0">
          <mxGeometry x="-0.6563" y="1" relative="1" as="geometry">
            <mxPoint x="11" y="-41" as="offset" />
          </mxGeometry>
        </mxCell>
        <mxCell id="mUGOG3NJcuzfk7SKJ7IW-384" value="Nginx" style="rounded=0;whiteSpace=wrap;html=1;" parent="1" vertex="1">
          <mxGeometry x="-302" y="4880" width="120" height="60" as="geometry" />
        </mxCell>
        <mxCell id="mUGOG3NJcuzfk7SKJ7IW-385" value="&lt;font style=&quot;font-size: 24px&quot;&gt;LB&lt;/font&gt;" style="text;html=1;align=center;verticalAlign=middle;resizable=0;points=[];autosize=1;strokeColor=none;fillColor=none;" parent="1" vertex="1">
          <mxGeometry x="-267" y="4810" width="50" height="20" as="geometry" />
        </mxCell>
        <mxCell id="mUGOG3NJcuzfk7SKJ7IW-386" value="Gateway集群" style="shape=process;whiteSpace=wrap;html=1;backgroundOutline=1;" parent="1" vertex="1">
          <mxGeometry x="-19" y="4970" width="120" height="60" as="geometry" />
        </mxCell>
        <mxCell id="mUGOG3NJcuzfk7SKJ7IW-387" value="" style="aspect=fixed;html=1;points=[];align=center;image;fontSize=12;image=img/lib/azure2/general/Resource_Explorer.svg;" parent="1" vertex="1">
          <mxGeometry x="148.60000000000002" y="4780" width="68" height="56.00000000000001" as="geometry" />
        </mxCell>
        <mxCell id="mUGOG3NJcuzfk7SKJ7IW-388" value="tomcat" style="rounded=1;whiteSpace=wrap;html=1;" parent="1" vertex="1">
          <mxGeometry x="-19" y="5150" width="120" height="60" as="geometry" />
        </mxCell>
        <mxCell id="mUGOG3NJcuzfk7SKJ7IW-389" value="Nginx" style="rounded=0;whiteSpace=wrap;html=1;" parent="1" vertex="1">
          <mxGeometry x="-302" y="4970" width="120" height="60" as="geometry" />
        </mxCell>
        <mxCell id="mUGOG3NJcuzfk7SKJ7IW-390" style="edgeStyle=orthogonalEdgeStyle;rounded=0;orthogonalLoop=1;jettySize=auto;html=1;exitX=1;exitY=0.5;exitDx=0;exitDy=0;entryX=0;entryY=0.75;entryDx=0;entryDy=0;" parent="1" source="mUGOG3NJcuzfk7SKJ7IW-391" target="mUGOG3NJcuzfk7SKJ7IW-386" edge="1">
          <mxGeometry relative="1" as="geometry">
            <Array as="points">
              <mxPoint x="-102" y="5080" />
              <mxPoint x="-102" y="5015" />
            </Array>
          </mxGeometry>
        </mxCell>
        <mxCell id="mUGOG3NJcuzfk7SKJ7IW-391" value="Nginx" style="rounded=0;whiteSpace=wrap;html=1;" parent="1" vertex="1">
          <mxGeometry x="-302" y="5050" width="120" height="60" as="geometry" />
        </mxCell>
        <mxCell id="mUGOG3NJcuzfk7SKJ7IW-392" style="edgeStyle=orthogonalEdgeStyle;rounded=0;orthogonalLoop=1;jettySize=auto;html=1;exitX=1;exitY=0.5;exitDx=0;exitDy=0;entryX=0;entryY=0.5;entryDx=0;entryDy=0;" parent="1" source="mUGOG3NJcuzfk7SKJ7IW-391" target="mUGOG3NJcuzfk7SKJ7IW-388" edge="1">
          <mxGeometry relative="1" as="geometry">
            <Array as="points">
              <mxPoint x="-102" y="5080" />
              <mxPoint x="-102" y="5180" />
            </Array>
            <mxPoint x="-127" y="5010" as="sourcePoint" />
            <mxPoint x="-9" y="5170" as="targetPoint" />
          </mxGeometry>
        </mxCell>
        <mxCell id="mUGOG3NJcuzfk7SKJ7IW-393" value="直接访问（绕开网关）" style="edgeLabel;html=1;align=center;verticalAlign=middle;resizable=0;points=[];" parent="mUGOG3NJcuzfk7SKJ7IW-392" vertex="1" connectable="0">
          <mxGeometry x="-0.3439" y="-1" relative="1" as="geometry">
            <mxPoint x="51" y="14" as="offset" />
          </mxGeometry>
        </mxCell>
        <mxCell id="mUGOG3NJcuzfk7SKJ7IW-394" style="edgeStyle=orthogonalEdgeStyle;rounded=0;orthogonalLoop=1;jettySize=auto;html=1;exitX=1;exitY=0.5;exitDx=0;exitDy=0;entryX=0;entryY=0.5;entryDx=0;entryDy=0;" parent="1" source="mUGOG3NJcuzfk7SKJ7IW-401" target="mUGOG3NJcuzfk7SKJ7IW-384" edge="1">
          <mxGeometry relative="1" as="geometry">
            <mxPoint x="-381" y="5000" as="sourcePoint" />
          </mxGeometry>
        </mxCell>
        <mxCell id="mUGOG3NJcuzfk7SKJ7IW-395" style="edgeStyle=orthogonalEdgeStyle;rounded=0;orthogonalLoop=1;jettySize=auto;html=1;exitX=1;exitY=0.5;exitDx=0;exitDy=0;entryX=0;entryY=0.5;entryDx=0;entryDy=0;" parent="1" source="mUGOG3NJcuzfk7SKJ7IW-401" target="mUGOG3NJcuzfk7SKJ7IW-389" edge="1">
          <mxGeometry relative="1" as="geometry">
            <mxPoint x="-381" y="5000" as="sourcePoint" />
          </mxGeometry>
        </mxCell>
        <mxCell id="mUGOG3NJcuzfk7SKJ7IW-396" style="edgeStyle=orthogonalEdgeStyle;rounded=0;orthogonalLoop=1;jettySize=auto;html=1;exitX=1;exitY=0.5;exitDx=0;exitDy=0;entryX=0;entryY=0.5;entryDx=0;entryDy=0;" parent="1" source="mUGOG3NJcuzfk7SKJ7IW-401" target="mUGOG3NJcuzfk7SKJ7IW-391" edge="1">
          <mxGeometry relative="1" as="geometry">
            <mxPoint x="-381" y="5000" as="sourcePoint" />
          </mxGeometry>
        </mxCell>
        <mxCell id="mUGOG3NJcuzfk7SKJ7IW-397" style="edgeStyle=orthogonalEdgeStyle;rounded=0;orthogonalLoop=1;jettySize=auto;html=1;exitX=1;exitY=0.5;exitDx=0;exitDy=0;entryX=0;entryY=0.5;entryDx=0;entryDy=0;" parent="1" source="mUGOG3NJcuzfk7SKJ7IW-398" target="mUGOG3NJcuzfk7SKJ7IW-384" edge="1">
          <mxGeometry relative="1" as="geometry">
            <Array as="points">
              <mxPoint x="-400" y="4935" />
              <mxPoint x="-400" y="5000" />
              <mxPoint x="-364" y="5000" />
              <mxPoint x="-364" y="4910" />
            </Array>
          </mxGeometry>
        </mxCell>
        <mxCell id="mUGOG3NJcuzfk7SKJ7IW-398" value="LVS" style="rounded=0;whiteSpace=wrap;html=1;" parent="1" vertex="1">
          <mxGeometry x="-532" y="4917" width="105" height="36" as="geometry" />
        </mxCell>
        <mxCell id="mUGOG3NJcuzfk7SKJ7IW-399" style="edgeStyle=orthogonalEdgeStyle;rounded=0;orthogonalLoop=1;jettySize=auto;html=1;exitX=1;exitY=0.5;exitDx=0;exitDy=0;entryX=0;entryY=0.5;entryDx=0;entryDy=0;" parent="1" source="mUGOG3NJcuzfk7SKJ7IW-400" target="mUGOG3NJcuzfk7SKJ7IW-389" edge="1">
          <mxGeometry relative="1" as="geometry">
            <Array as="points">
              <mxPoint x="-400" y="5061" />
              <mxPoint x="-400" y="5000" />
            </Array>
          </mxGeometry>
        </mxCell>
        <mxCell id="mUGOG3NJcuzfk7SKJ7IW-400" value="LVS" style="rounded=0;whiteSpace=wrap;html=1;" parent="1" vertex="1">
          <mxGeometry x="-531" y="5043" width="105" height="36" as="geometry" />
        </mxCell>
        <mxCell id="mUGOG3NJcuzfk7SKJ7IW-401" value="LVS" style="rounded=0;whiteSpace=wrap;html=1;" parent="1" vertex="1">
          <mxGeometry x="-531" y="4983" width="105" height="36" as="geometry" />
        </mxCell>
        <mxCell id="mUGOG3NJcuzfk7SKJ7IW-402" value="115.205.4.201" style="text;html=1;strokeColor=none;fillColor=none;align=center;verticalAlign=middle;whiteSpace=wrap;rounded=0;" parent="1" vertex="1">
          <mxGeometry x="-630" y="4910" width="70" height="10" as="geometry" />
        </mxCell>
        <mxCell id="mUGOG3NJcuzfk7SKJ7IW-403" value="115.205.4.202" style="text;html=1;strokeColor=none;fillColor=none;align=center;verticalAlign=middle;whiteSpace=wrap;rounded=0;" parent="1" vertex="1">
          <mxGeometry x="-630" y="4983" width="70" height="10" as="geometry" />
        </mxCell>
        <mxCell id="mUGOG3NJcuzfk7SKJ7IW-404" value="115.205.4.203" style="text;html=1;strokeColor=none;fillColor=none;align=center;verticalAlign=middle;whiteSpace=wrap;rounded=0;" parent="1" vertex="1">
          <mxGeometry x="-630" y="5040" width="70" height="10" as="geometry" />
        </mxCell>
        <mxCell id="mUGOG3NJcuzfk7SKJ7IW-405" value="" style="sketch=0;points=[[0.015,0.015,0],[0.985,0.015,0],[0.985,0.985,0],[0.015,0.985,0],[0.25,0,0],[0.5,0,0],[0.75,0,0],[1,0.25,0],[1,0.5,0],[1,0.75,0],[0.75,1,0],[0.5,1,0],[0.25,1,0],[0,0.75,0],[0,0.5,0],[0,0.25,0]];verticalLabelPosition=bottom;html=1;verticalAlign=top;aspect=fixed;align=center;pointerEvents=1;shape=mxgraph.cisco19.dns_server;fillColor=#005073;strokeColor=none;" parent="1" vertex="1">
          <mxGeometry x="-747" y="4780" width="27.500000000000004" height="50" as="geometry" />
        </mxCell>
        <mxCell id="mUGOG3NJcuzfk7SKJ7IW-406" value="&lt;font style=&quot;font-size: 14px&quot;&gt;example.com&lt;br&gt;&lt;br&gt;115.205.4.201&lt;br&gt;115.205.4.202&lt;br&gt;115.205.4.203&lt;/font&gt;" style="whiteSpace=wrap;html=1;aspect=fixed;" parent="1" vertex="1">
          <mxGeometry x="-704" y="4740" width="126" height="126" as="geometry" />
        </mxCell>
        <mxCell id="mUGOG3NJcuzfk7SKJ7IW-407" value="example.com" style="text;html=1;strokeColor=none;fillColor=none;align=center;verticalAlign=middle;whiteSpace=wrap;rounded=0;rotation=-90;" parent="1" vertex="1">
          <mxGeometry x="-790" y="4920" width="76" height="20" as="geometry" />
        </mxCell>
        <mxCell id="mUGOG3NJcuzfk7SKJ7IW-408" value="115.205.4.201" style="text;html=1;strokeColor=none;fillColor=none;align=center;verticalAlign=middle;whiteSpace=wrap;rounded=0;fontStyle=0;rotation=-90;" parent="1" vertex="1">
          <mxGeometry x="-727" y="4925" width="70" height="10" as="geometry" />
        </mxCell>
        <mxCell id="mUGOG3NJcuzfk7SKJ7IW-410" style="edgeStyle=orthogonalEdgeStyle;rounded=0;orthogonalLoop=1;jettySize=auto;html=1;exitX=1;exitY=0.5;exitDx=0;exitDy=0;exitPerimeter=0;entryX=0;entryY=0.5;entryDx=0;entryDy=0;" parent="1" source="mUGOG3NJcuzfk7SKJ7IW-411" target="mUGOG3NJcuzfk7SKJ7IW-414" edge="1">
          <mxGeometry relative="1" as="geometry" />
        </mxCell>
        <mxCell id="mUGOG3NJcuzfk7SKJ7IW-411" value="" style="sketch=0;points=[[0.015,0.015,0],[0.985,0.015,0],[0.985,0.985,0],[0.015,0.985,0],[0.25,0,0],[0.5,0,0],[0.75,0,0],[1,0.25,0],[1,0.5,0],[1,0.75,0],[0.75,1,0],[0.5,1,0],[0.25,1,0],[0,0.75,0],[0,0.5,0],[0,0.25,0]];verticalLabelPosition=bottom;html=1;verticalAlign=top;aspect=fixed;align=center;pointerEvents=1;shape=mxgraph.cisco19.dns_server;fillColor=#005073;strokeColor=none;" parent="1" vertex="1">
          <mxGeometry x="-732" y="5156" width="27.500000000000004" height="50" as="geometry" />
        </mxCell>
        <mxCell id="mUGOG3NJcuzfk7SKJ7IW-412" value="" style="endArrow=classic;html=1;exitX=0.5;exitY=1;exitDx=0;exitDy=0;entryX=0.5;entryY=0;entryDx=0;entryDy=0;entryPerimeter=0;" parent="1" source="mUGOG3NJcuzfk7SKJ7IW-373" target="mUGOG3NJcuzfk7SKJ7IW-411" edge="1">
          <mxGeometry width="50" height="50" relative="1" as="geometry">
            <mxPoint x="-716.5" y="5031" as="sourcePoint" />
            <mxPoint x="-783.5" y="5141" as="targetPoint" />
          </mxGeometry>
        </mxCell>
        <mxCell id="mUGOG3NJcuzfk7SKJ7IW-413" value="static.example.com/example.png" style="edgeLabel;html=1;align=center;verticalAlign=middle;resizable=0;points=[];" parent="mUGOG3NJcuzfk7SKJ7IW-412" vertex="1" connectable="0">
          <mxGeometry x="0.3604" y="-2" relative="1" as="geometry">
            <mxPoint as="offset" />
          </mxGeometry>
        </mxCell>
        <mxCell id="mUGOG3NJcuzfk7SKJ7IW-414" value="" style="strokeColor=#dddddd;shadow=1;strokeWidth=1;rounded=1;absoluteArcSize=1;arcSize=2;" parent="1" vertex="1">
          <mxGeometry x="-612.5" y="5159" width="120" height="44" as="geometry" />
        </mxCell>
        <mxCell id="mUGOG3NJcuzfk7SKJ7IW-415" value="CDN&#xa;Interconnect" style="sketch=0;dashed=0;connectable=0;html=1;fillColor=#757575;strokeColor=none;shape=mxgraph.gcp2.google_network_edge_cache;part=1;labelPosition=right;verticalLabelPosition=middle;align=left;verticalAlign=middle;spacingLeft=5;fontSize=12;" parent="mUGOG3NJcuzfk7SKJ7IW-414" vertex="1">
          <mxGeometry y="0.5" width="32" height="32" relative="1" as="geometry">
            <mxPoint x="5" y="-16" as="offset" />
          </mxGeometry>
        </mxCell>
        <mxCell id="mUGOG3NJcuzfk7SKJ7IW-416" value="" style="endArrow=classic;html=1;exitX=0.5;exitY=0;exitDx=0;exitDy=0;entryX=0.5;entryY=1;entryDx=0;entryDy=0;" parent="1" source="mUGOG3NJcuzfk7SKJ7IW-414" target="mUGOG3NJcuzfk7SKJ7IW-373" edge="1">
          <mxGeometry width="50" height="50" relative="1" as="geometry">
            <mxPoint x="-433.5" y="5201" as="sourcePoint" />
            <mxPoint x="-696" y="5060" as="targetPoint" />
          </mxGeometry>
        </mxCell>
      </root>
    </mxGraphModel>
  </diagram>
</mxfile>
